<svg width="101" height="101" viewBox="0 0 101 101" fill="none" xmlns="http://www.w3.org/2000/svg">
<path d="M5 0.709717C2.25883 0.709717 0 2.96754 0 5.70739V95.6641C0 98.4041 2.25883 100.662 5 100.662H68.3333C71.0745 100.662 73.3333 98.4041 73.3333 95.6641V86.7588C73.3654 84.5061 69.9681 84.5061 70 86.7588V95.6641C70 96.6159 69.2855 97.33 68.3333 97.33H5C4.04784 97.33 3.33333 96.6159 3.33333 95.6641V5.70739C3.33333 4.75572 4.04784 4.0415 5 4.0415H56.6699V12.374C56.6699 15.1139 58.9222 17.3652 61.6634 17.3652H70V51.2552C69.9679 53.508 73.3652 53.508 73.3333 51.2552V15.7025C73.3332 15.2605 73.1576 14.837 72.845 14.5247L59.5117 1.19776C59.1992 0.885473 58.7753 0.709909 58.3333 0.709909L5 0.709717ZM60.0032 6.40045L67.64 14.0336H61.6634C60.7113 14.0336 60.0032 13.3258 60.0032 12.374V6.40045ZM21.6667 14.0336C19.3946 13.9832 19.3946 17.4156 21.6667 17.3652H48.3268C50.5989 17.4155 50.5989 13.9831 48.3268 14.0336H21.6667ZM11.6634 24.0318C9.39132 23.9814 9.39132 27.414 11.6634 27.3636H48.3268C50.5989 27.414 50.5989 23.9814 48.3268 24.0318H11.6634ZM54.9967 24.0318C52.7246 23.9814 52.7246 27.414 54.9967 27.3636H61.6634C63.9355 27.414 63.9355 23.9814 61.6634 24.0318H54.9967ZM11.6634 37.362H61.6634C63.9355 37.4124 63.9355 33.98 61.6634 34.0304H11.5837C9.33335 34.1834 9.48819 37.4172 11.6634 37.362H11.6634ZM95.0065 40.4986C93.6716 40.4986 92.3369 40.9997 91.3281 42.0082L88.0631 45.2716C86.6343 44.7484 84.958 45.0438 83.8216 46.1795L53.8281 76.1584C53.6238 76.3593 53.4747 76.6092 53.3952 76.884L50.0618 88.5419C49.6931 89.8048 50.8654 90.9764 52.1289 90.6079L63.7923 87.2763C64.0625 87.1957 64.3077 87.0477 64.5052 86.8468L93.3333 58.0456L93.6165 58.3284C94.9427 59.654 94.9427 61.7108 93.6165 63.0363L85.4818 71.1673C83.8126 72.7408 86.2795 75.193 87.845 73.5164L95.9766 65.3855C98.5678 62.7955 98.5677 58.5562 95.9766 55.9662L95.4232 55.4128C95.7503 54.5141 95.7495 53.5233 95.4232 52.6244L98.6849 49.3643C100.702 47.3478 100.702 44.0243 98.6849 42.0079C97.6761 40.9995 96.3414 40.4982 95.0065 40.4982V40.4986ZM95.0002 43.8075C95.4734 43.8075 95.9456 43.9946 96.3218 44.3705C97.0743 45.1226 97.0743 46.2635 96.3218 47.0157L93.3335 49.9926L90.6838 47.3541L93.6786 44.3705C94.0548 43.9946 94.527 43.8075 95.0002 43.8075ZM11.6636 47.3604H18.3335C20.5579 47.3604 20.5579 44.0256 18.3335 44.0256H11.5837C9.27951 44.132 9.43901 47.4667 11.6634 47.3604H11.6636ZM61.6636 47.3604C63.888 47.3604 63.888 44.0256 61.6636 44.0256H24.9137C22.6031 44.1402 22.7756 47.4754 25 47.3604H61.6636ZM86.6701 48.3106C86.8404 48.3106 87.0097 48.383 87.1552 48.5285L92.1519 53.5325C92.4427 53.8234 92.4427 54.2113 92.1519 54.502L75.0035 71.6488L69.0237 65.6783L86.1851 48.5285C86.3306 48.383 86.4999 48.3106 86.6702 48.3106H86.6701ZM11.6636 54.0109C9.39153 53.9605 9.39153 57.3931 11.6636 57.3427H61.6636C63.9357 57.3931 63.9357 53.9605 61.6636 54.0109H11.6636ZM11.6636 64.0095C9.39153 63.9592 9.39153 67.3915 11.6636 67.3411H35.0034C37.2755 67.3915 37.2755 63.9591 35.0034 64.0095H11.6636ZM41.6734 64.0095C39.4013 63.9592 39.4013 67.3915 41.6734 67.3411H48.327C50.5991 67.3915 50.5991 63.9591 48.327 64.0095H41.6734ZM66.6669 68.0375L72.6402 74.011L63.3303 83.3231L57.357 77.3395L66.6669 68.0375ZM55.827 80.5184L60.1565 84.8456L54.0985 86.5734L55.827 80.5184ZM35.2736 83.8567C33.4776 83.9473 31.4128 84.5511 29.1473 85.9097C25.345 88.19 23.2509 87.6949 21.8524 86.9183C20.4539 86.1417 19.8212 84.9271 19.8212 84.9271C18.884 82.7857 15.6928 84.3786 16.8427 86.4139C16.8427 86.4139 17.8766 88.5278 20.2281 89.8335C22.5796 91.1393 26.3254 91.4803 30.8563 88.7631C34.6587 86.4827 36.756 86.978 38.1545 87.7545C39.553 88.5311 40.1695 89.749 40.1695 89.749C41.1634 91.7424 44.1549 90.252 43.161 88.2587C43.161 88.2587 42.1173 86.1483 39.7658 84.8426C38.5901 84.1897 37.0696 83.7659 35.2736 83.8567Z" fill="#ECEEF1"/>
</svg>
