<svg width="100%" height="100%" viewBox="0 0 22 20" fill="none" xmlns="http://www.w3.org/2000/svg">
<path d="M21.212 10.3769C20.9844 10.9832 20.4207 11.3751 19.7751 11.3751H19.2499V18.9376C19.2499 19.3171 18.9419 19.6251 18.5624 19.6251H14.4374V14.8126C14.4374 12.9172 12.8953 11.3751 10.9999 11.3751C9.10444 11.3751 7.56237 12.9172 7.56237 14.8126V19.6251H3.43737C3.05787 19.6251 2.74987 19.3171 2.74987 18.9376V11.3751H2.22394C1.57837 11.3751 1.01462 10.9839 0.787061 10.3776C0.559498 9.77118 0.726561 9.10431 1.21331 8.67943L9.24262 1.07568C10.2285 0.142742 11.7719 0.142742 12.7571 1.07568L20.8057 8.6973C21.2718 9.10362 21.4396 9.77049 21.212 10.3769Z" />
</svg>
