<svg width="100%" height="100%" viewBox="0 0 25 24" xmlns="http://www.w3.org/2000/svg">
<path d="M12.4844 0C5.58677 0 0 4.98618 0 11.1438C0 14.6582 1.81024 17.7821 4.65044 19.8246L4.71286 23.7294C4.71286 23.9397 4.96255 24.0598 5.14981 23.9697L9.05119 21.8671C10.1436 22.1375 11.2984 22.2876 12.5156 22.2876C19.4132 22.2876 25 17.3015 25 11.1438C25 4.98618 19.3508 0 12.4844 0ZM13.3895 14.7783L10.7366 12.105C10.5805 11.9548 10.3308 11.9248 10.1436 12.0149L5.46192 14.4479C5.27466 14.538 5.1186 14.3278 5.24345 14.1776L10.7678 8.53058C10.9238 8.38039 11.2047 8.38039 11.3608 8.53058L14.0137 11.264C14.1698 11.4142 14.4195 11.4742 14.6067 11.3541L19.1948 8.9511C19.382 8.86099 19.5381 9.07125 19.4132 9.22144L13.9825 14.7783C13.8265 14.9285 13.5456 14.9285 13.3895 14.7783Z"/>
</svg>
