<svg width="67" height="72" viewBox="0 0 67 72" fill="none" xmlns="http://www.w3.org/2000/svg">
<path d="M51.6523 40.7999C43.2376 40.7999 36.3914 47.7983 36.3914 56.3999C36.3914 65.0015 43.2376 71.9999 51.6523 71.9999C60.0669 71.9999 66.9131 65.0015 66.9131 56.3999C66.9131 47.7983 60.0669 40.7999 51.6523 40.7999Z" fill="#2FB74F"/>
<path fill-rule="evenodd" clip-rule="evenodd" d="M57.7318 49.7147L51.1626 59.3627L46.5268 55.4723C46.0267 55.0511 45.286 55.1267 44.8751 55.6391C44.4631 56.1515 44.5358 56.9075 45.0383 57.3275L50.6566 62.0423C50.8679 62.2187 51.1309 62.3147 51.4009 62.3147C51.4537 62.3147 51.5077 62.3111 51.5617 62.3039C51.8857 62.2571 52.1768 62.0759 52.3647 61.8011L59.6594 51.0863C60.0291 50.5427 59.8988 49.7939 59.3659 49.4159C58.8329 49.0355 58.1028 49.1711 57.7318 49.7147Z" fill="white"/>
<path d="M32.9294 57.6V55.2C33.0856 52.6296 33.7359 50.1996 34.7889 48L36.1354 45.6C39.521 40.5336 45.2121 37.2 51.6522 37.2C52.8566 37.2 54.0317 37.3272 55.1739 37.5504V17.5032L38.0512 0H0V72H40.7442C36.2857 68.7336 33.291 63.5316 32.9294 57.6Z" fill="#DDEBE0"/>
<path fill-rule="evenodd" clip-rule="evenodd" d="M38.7392 4.79993L50.4783 16.7999H38.7392V4.79993Z" fill="#2FB74F"/>
<path fill-rule="evenodd" clip-rule="evenodd" d="M8.51086 19.8H20.25C20.898 19.8 21.4239 20.3364 21.4239 21C21.4239 21.6636 20.898 22.2 20.25 22.2H8.51086C7.86286 22.2 7.33694 21.6636 7.33694 21C7.33694 20.3364 7.86286 19.8 8.51086 19.8Z" fill="#2FB74F"/>
<path fill-rule="evenodd" clip-rule="evenodd" d="M8.29347 29.3999H32.2065C32.7345 29.3999 33.163 29.9363 33.163 30.5999C33.163 31.2635 32.7345 31.7999 32.2065 31.7999H8.29347C7.76547 31.7999 7.33694 31.2635 7.33694 30.5999C7.33694 29.9363 7.76547 29.3999 8.29347 29.3999Z" fill="#2FB74F"/>
<path fill-rule="evenodd" clip-rule="evenodd" d="M8.02173 39.0001H25.1413C25.5193 39.0001 25.8261 39.5365 25.8261 40.2001C25.8261 40.8637 25.5193 41.4001 25.1413 41.4001H8.02173C7.64373 41.4001 7.33694 40.8637 7.33694 40.2001C7.33694 39.5365 7.64373 39.0001 8.02173 39.0001Z" fill="#2FB74F"/>
</svg>
