<svg width="666" height="680" viewBox="0 0 666 680" fill="none" xmlns="http://www.w3.org/2000/svg">
<path d="M489.477 0.596313C489.279 0.860901 487.625 1.32404 485.839 1.58868C484.052 1.78717 482.266 2.44873 481.803 2.97803C481.34 3.50726 480.612 3.9704 480.083 3.9704C478.826 3.9704 477.172 6.61676 477.172 8.6015C477.172 10.7186 479.487 14.5558 480.744 14.5558C482.068 14.5558 483.788 17.136 483.788 19.1208C483.788 20.047 484.383 21.4363 485.177 22.2303C486.434 23.5534 486.5 23.9504 485.706 26.0013C485.045 27.9861 485.045 28.5815 485.839 29.8385C486.765 31.1617 486.699 31.6909 485.574 34.8004C484.317 38.1745 484.185 38.3069 480.877 39.0346C479.024 39.4977 476.576 40.4239 475.452 41.0855C474.327 41.8133 472.739 42.3425 471.945 42.3425C471.151 42.3425 469.894 42.6733 469.167 43.0703C468.108 43.5995 467.447 43.4011 465.859 42.0779C463.411 40.027 462.683 39.9608 459.507 41.6809C458.118 42.4087 456.53 43.0041 455.869 43.0041C455.273 43.0041 454.612 43.2688 454.413 43.5995C454.215 43.8642 451.238 43.9965 447.797 43.798C441.975 43.5334 441.512 43.5995 440.718 44.9227C440.189 45.6505 439.197 46.3121 438.469 46.3121C437.741 46.3121 434.169 47.3706 430.53 48.6276C426.891 49.8846 423.252 50.9432 422.458 50.9432C421.598 50.9432 420.011 49.8846 418.489 48.2307C415.644 45.1874 410.748 41.6809 409.359 41.6809C408.168 41.6809 397.12 37.1822 395.995 36.2559C394.87 35.3958 388.717 36.2559 387.527 37.5129C386.997 38.0422 386.534 38.9023 386.534 39.4315C386.534 39.9608 385.277 39.0346 383.689 37.3806C382.035 35.7267 380.183 34.4035 379.389 34.4035C378.661 34.4035 377.801 34.0727 377.603 33.7419C377.404 33.3449 376.346 33.0803 375.221 33.0803C373.766 33.0803 373.302 32.7495 373.302 31.8894C373.302 31.1617 372.707 30.1031 371.979 29.4416C371.185 28.7138 370.656 27.3906 370.656 26.1336C370.656 24.9427 369.994 23.1565 369.267 22.1641C368.01 20.6424 367.547 20.4439 365.43 20.8409C364.106 21.1055 362.452 21.8333 361.725 22.4949C360.997 23.1565 358.814 23.8842 356.697 24.0827C353.19 24.5458 352.859 24.4135 350.742 22.561C348.03 20.047 345.648 19.9147 343.002 22.1641C341.348 23.5534 340.62 23.7519 337.775 23.3549C332.945 22.8257 331.622 23.7519 331.622 27.7214C331.622 30.5663 331.49 30.9632 330.365 30.6324C329.704 30.4339 328.381 30.7647 327.587 31.294C326.197 32.2202 325.866 32.2202 324.742 31.3602C322.956 30.1031 321.235 30.1693 319.251 31.7571C318.324 32.4849 316.67 33.0803 315.546 33.0803C314.355 33.0803 312.833 33.6757 311.907 34.5358C310.716 35.6605 309.525 36.0574 307.144 36.0574C304.762 36.0574 303.571 36.4544 302.38 37.5129C300.395 39.3654 299.866 39.3654 296.558 37.7114C293.052 35.9251 286.171 35.859 283.26 37.6453C281.143 38.9023 281.143 38.9023 279.291 37.5791C277.637 36.3221 277.107 36.2559 274.792 36.9837C272.013 37.7776 269.433 40.4239 269.433 42.4087C269.433 44.0627 265.728 44.9889 262.023 44.3273C252.562 42.6072 250.048 42.2764 245.153 42.1441C237.214 42.0117 235.89 43.5334 235.03 53.7219C234.832 56.8975 234.369 59.7423 234.104 60.007C233.84 60.2716 233.112 59.8085 232.45 59.0146C230.929 56.9637 227.554 57.1621 227.224 59.2792C226.827 61.9917 224.908 62.9179 219.086 63.1826C215.183 63.3811 213.132 63.1826 211.742 62.4548C210.684 61.9256 209.228 61.6609 208.501 61.8594C207.707 62.1241 206.648 61.9256 206.053 61.3963C204.531 60.0731 200.032 58.8823 196.791 58.8823C194.872 58.8823 193.549 59.3454 192.027 60.6024L189.976 62.3887L188.455 60.9332C186.734 59.2792 186.139 59.213 183.294 60.4701C182.103 60.9994 179.854 61.9256 178.266 62.5872C175.09 63.9103 172.841 66.2921 172.841 68.4091C172.841 69.7985 166.754 76.7451 165.564 76.7451C165.233 76.7451 164.703 77.7375 164.373 78.8622C163.843 80.9793 163.711 81.0455 160.403 80.847C157.889 80.6485 156.764 80.9132 155.772 81.8394C153.06 84.4857 150.149 86.2059 149.355 85.6104C145.782 82.9641 144.657 82.501 140.886 82.2364C137.115 81.9055 136.586 82.0379 134.601 83.6918C131.823 86.0074 129.573 86.5367 125.537 85.8089C121.105 85.015 115.547 86.2059 114.952 88.0583C114.555 89.3153 114.423 89.3153 113.364 88.3891C111.578 86.8013 108.799 87.0659 107.939 88.8522C107.542 89.7123 106.351 90.9032 105.293 91.5648C104.234 92.1602 103.374 93.0864 103.374 93.5495C103.374 94.0788 102.977 94.8065 102.448 95.2035C101.654 95.8651 101.654 96.262 102.58 98.1145C103.11 99.3053 104.565 101.422 105.822 102.812C108.27 105.723 108.535 107.84 107.211 113.53C106.616 116.176 105.954 117.234 104.168 118.425C102.911 119.351 101.853 120.741 101.588 121.799C101.191 123.983 99.9339 124.578 97.8169 123.586C95.6336 122.659 92.9211 123.387 92.061 125.24C91.6641 126.1 90.7379 127.026 89.9439 127.357C88.8192 127.886 88.4223 128.746 88.1577 131.326C87.6945 135.031 86.239 138.207 83.4604 141.449C81.8726 143.169 81.5418 144.227 81.5418 146.874C81.5418 149.454 81.2771 150.314 80.2186 150.843C79.2262 151.372 78.8954 152.232 78.8954 154.35C78.8954 160.568 77.4399 161.495 68.1115 161.759C61.4956 161.892 59.1801 163.016 58.0554 166.589C57.5261 168.441 57.1291 168.706 55.0782 168.706C51.1748 168.706 50.9102 169.235 51.8364 174.065C52.2334 176.38 53.0935 178.894 53.755 179.622C55.6075 181.805 57.7246 185.907 57.7246 187.297C57.7246 188.752 56.7322 188.884 54.4166 187.561C52.3657 186.37 50.0501 186.304 49.3886 187.363C48.5946 188.686 48.5285 192.06 49.2562 194.045C49.9178 195.765 49.7855 196.096 47.8669 197.882C46.676 198.941 45.5513 199.801 45.3529 199.801C45.0882 199.801 44.4266 200.264 43.7651 200.859C42.7065 201.785 42.3757 201.719 39.9278 200.198C38.4723 199.271 35.6937 197.882 33.7751 197.154C30.5333 195.963 30.2025 195.897 28.6808 196.956L27.0269 198.014L28.5485 199.205C29.3424 199.867 31.0625 200.727 32.3196 201.058C35.7598 201.984 41.1187 206.284 40.7217 207.74C40.5233 208.401 39.8617 209.063 39.1339 209.261C38.2739 209.526 37.8769 210.188 37.8769 211.577C37.8769 212.702 37.5461 213.826 37.2153 214.025C36.0906 214.686 37.1492 215.679 39.0678 215.679C41.1187 215.745 43.1696 217.068 43.1696 218.325C43.1696 218.854 43.6327 219.781 44.2282 220.442C45.2867 221.501 45.2867 221.633 44.2282 222.03C43.0373 222.493 42.7727 224.61 43.8312 225.272C44.2282 225.47 44.4928 226.397 44.4928 227.323C44.4928 228.249 44.8898 228.911 45.419 228.911C46.6099 228.911 48.4623 231.822 48.4623 233.74C48.4623 234.6 49.3886 236.188 50.7117 237.445C52.498 239.165 53.8874 239.827 57.1953 240.422L61.3633 241.15L61.7603 243.73C62.0249 245.318 62.8188 246.906 63.8112 247.766C64.6713 248.494 66.656 250.875 68.2438 252.926C69.7655 255.043 72.478 257.756 74.1981 259.013C78.0353 261.792 79.16 263.776 78.5646 266.555C78.2338 268.01 78.5646 269.4 79.7555 271.715C82.6665 277.471 82.9973 279.191 81.6079 280.911C80.5494 282.301 80.2848 282.367 79.557 281.507C78.1677 279.853 76.9768 280.382 73.4042 284.021C70.6256 286.866 69.6332 288.586 68.1777 292.82C65.5975 300.296 64.0758 308.831 65.0682 310.021C66.2591 311.477 67.5161 311.146 68.6408 308.963C69.8316 306.647 70.6256 306.449 71.6179 308.301C72.478 309.823 74.7936 310.088 75.3228 308.632C75.5875 308.103 76.0506 307.64 76.3814 307.64C76.7122 307.64 77.903 307.044 78.9616 306.25L80.9463 304.861L82.5342 306.581C83.4604 307.574 84.8497 308.301 85.8421 308.301C87.7607 308.301 87.893 307.838 86.4375 305.787C85.4451 304.398 85.4451 304.133 86.4375 303.075C87.033 302.413 87.4961 301.288 87.4961 300.561C87.4961 298.907 84.9159 297.584 83.2619 298.51C81.6079 299.436 81.3433 298.841 81.8064 295.4C82.2034 292.754 82.468 292.423 84.0558 292.357C85.0482 292.291 86.3052 292.357 86.8345 292.423C87.3638 292.489 88.4223 291.762 89.2162 290.703L90.6717 288.917L91.3994 291.497C91.7964 292.886 92.1272 294.606 92.1272 295.268C92.1272 295.93 92.5903 297.385 93.1857 298.51C94.1781 300.428 94.1781 300.561 92.5903 302.281C89.4808 305.589 88.7531 308.169 90.4071 309.757C90.9363 310.286 91.3994 311.278 91.5979 312.006C91.7302 312.668 92.458 313.329 93.1857 313.462C94.2443 313.594 94.972 312.866 96.2952 310.286C97.2876 308.367 98.0815 306.449 98.0815 305.986C98.0815 304.464 99.4708 304.133 100.463 305.39C101.125 306.316 101.323 307.64 101.059 309.955C100.596 314.586 101.389 317.167 103.44 317.431C105.425 317.696 107.013 320.607 105.954 321.996C105.491 322.459 105.425 323.716 105.69 324.973C106.153 327.157 106.153 329.075 105.888 332.118C105.69 333.442 106.021 333.772 107.542 334.103C108.601 334.302 109.725 335.096 110.189 336.088C111.247 338.271 113.695 338.602 115.349 336.816C116.077 336.022 117.334 335.426 118.194 335.426C119.054 335.426 121.303 334.037 123.553 332.052C125.802 330.068 127.721 328.877 128.316 329.075C128.845 329.274 129.705 329.472 130.235 329.472C130.764 329.472 131.161 330.068 131.161 330.795C131.161 331.523 131.492 332.118 131.823 332.118C132.219 332.118 132.352 332.78 132.153 333.64C131.823 334.897 132.219 335.559 133.94 336.882C135.13 337.742 137.115 338.734 138.306 338.933C140.225 339.33 140.952 339.065 143.202 337.147C144.591 335.89 146.774 334.699 147.899 334.5C153.787 333.243 154.052 333.309 156.037 334.963C157.691 336.419 157.823 336.816 157.161 337.874C156.698 338.536 155.441 340.719 154.383 342.704C152.266 346.673 149.553 349.584 147.238 350.246C145.253 350.841 140.952 349.518 138.703 347.6C137.711 346.673 135.726 345.813 134.337 345.615C132.947 345.35 131.624 344.887 131.426 344.622C131.227 344.292 130.235 344.027 129.242 344.027C127.39 344.027 127.39 344.093 127.059 348.79C126.728 353.223 126.464 354.083 123.222 359.244C117.665 368.109 113.695 371.814 111.313 370.358C110.652 369.961 109.725 369.763 109.196 369.961C108.204 370.358 105.359 377.305 105.359 379.29C105.359 381.208 108.27 383.59 111.975 384.715C117.863 386.567 119.649 387.957 120.576 391.397C121.237 393.646 121.303 394.969 120.774 396.293C119.252 400.328 122.626 405.092 124.545 401.651C125.14 400.527 125.471 400.461 127.191 401.056C128.316 401.387 129.507 402.313 129.838 402.975C130.235 403.636 132.286 405.356 134.337 406.812C136.454 408.267 139.166 410.517 140.291 411.84C143.665 415.677 149.09 426.99 149.487 431.224L149.884 434.797L145.584 438.833C143.202 441.082 140.886 443.596 140.489 444.39C139.563 446.176 139.563 453.983 140.423 457.225C140.82 458.548 142.276 460.93 143.665 462.584C145.12 464.238 146.377 466.355 146.51 467.48C146.642 469.001 147.039 469.464 148.561 469.597C150.612 469.861 150.744 470.391 149.355 473.037C148.693 474.36 148.495 475.882 148.759 478.131C149.024 479.851 149.156 483.49 149.09 486.07C148.958 490.437 149.09 490.9 150.149 490.9C150.942 490.9 152.001 489.907 152.927 488.253C153.721 486.798 154.912 485.607 155.507 485.607C156.103 485.607 157.228 485.409 157.955 485.21C159.08 484.945 159.675 485.541 161.263 488.849C162.586 491.76 163.513 492.885 164.439 492.885C165.762 492.885 173.503 485.607 173.503 484.35C173.503 484.019 172.973 483.358 172.312 483.027C170.393 481.968 169.665 478.528 170.327 473.368C171.253 466.553 171.452 465.759 172.378 465.759C172.841 465.759 174.297 465.164 175.686 464.436C178.398 462.981 180.515 462.782 183.029 463.775C185.014 464.502 185.345 467.083 183.956 470.854C183.228 472.838 183.294 473.169 185.147 475.088C186.668 476.676 187.462 477.006 188.851 476.742C190.439 476.411 190.969 476.874 193.35 480.182C194.806 482.233 196.195 484.681 196.394 485.607C196.857 487.526 199.106 492.554 200.495 494.737C201.157 495.729 201.488 497.648 201.355 500.03C201.289 502.147 201.488 504.727 201.819 505.786C202.348 507.439 202.216 508.167 201.223 509.358C200.495 510.218 199.966 511.541 199.966 512.401C199.966 514.055 202.282 517.363 203.406 517.363C203.803 517.363 205.259 517.826 206.648 518.488C208.765 519.414 209.162 519.877 209.559 522.391C210.088 526.096 211.412 527.221 213.264 525.567C214.058 524.905 214.521 523.648 214.455 522.656C214.389 521.73 214.587 520.407 214.852 519.745C215.183 519.017 215.05 517.231 214.521 515.445C214.058 513.791 213.529 511.012 213.33 509.292C213.066 506.447 213.198 506.05 214.786 505.389C215.778 504.925 216.638 503.867 216.837 502.742C217.101 501.684 217.564 500.824 217.961 500.824C218.424 500.824 218.557 499.567 218.226 497.251C217.895 493.943 217.961 493.612 219.483 492.62C220.608 491.892 221.137 490.9 221.137 489.643C221.137 487.195 222.196 486.401 225.967 485.872C230.201 485.276 233.509 486.004 234.766 487.856C235.295 488.717 235.957 491.561 236.155 494.142C236.552 499.17 237.611 500.956 239.331 499.5C240.654 498.376 241.712 499.302 241.249 501.088C240.985 502.345 241.315 502.941 243.036 504.132C244.359 505.124 245.88 507.241 247.071 509.954L248.99 514.188L251.769 514.055C256.003 513.791 256.201 513.857 256.201 516.172C256.201 517.429 256.863 519.15 257.723 520.274C259.112 521.928 259.708 522.193 263.809 522.391C268.639 522.656 269.433 522.259 269.433 519.547C269.433 518.687 268.507 517.363 267.184 516.305C265.133 514.651 265 514.32 265.53 512.468C266.125 510.615 265.927 510.284 264.008 508.763C257.987 504.264 256.003 500.757 257.591 497.78C258.252 496.457 258.252 495.862 257.657 494.869C256.598 493.083 256.598 493.017 258.517 493.414C259.708 493.612 260.237 493.348 260.568 492.488C260.766 491.76 261.362 490.371 261.957 489.378C262.817 487.724 262.817 487.261 261.891 485.276C261.295 484.085 260.832 482.828 260.832 482.431C260.832 482.101 260.369 481.439 259.84 480.976C258.12 479.52 256.135 474.228 255.143 468.406C254.613 465.296 253.753 461.988 253.224 461.062C252.695 460.136 252.43 459.144 252.695 458.945C252.893 458.68 252.43 457.159 251.636 455.439C250.313 452.66 249.982 452.395 248.196 452.66C246.674 452.925 246.277 452.726 246.277 451.734C246.277 451.006 246.542 449.947 246.939 449.286C247.402 448.36 246.807 446.573 244.293 441.611C242.44 438.039 240.985 434.665 240.985 434.003C240.985 433.342 239.794 431.357 238.338 429.637C236.684 427.586 235.692 425.733 235.692 424.609C235.692 423.616 235.229 421.433 234.7 419.779C234.104 418.125 233.84 416.537 234.038 416.206C234.236 415.876 234.104 414.817 233.707 413.825C233.244 412.634 233.244 411.641 233.707 410.781C234.567 409.194 235.427 409.194 235.957 410.649C237.809 415.809 240.058 417.331 243.763 416.074C245.682 415.479 246.476 415.412 247.071 416.008C247.534 416.471 248.394 416.802 249.056 416.802C249.718 416.802 250.445 417.331 250.644 417.927C252.298 423.087 251.835 422.756 258.384 422.822C260.369 422.822 260.832 423.087 260.568 423.815C260.369 424.41 260.171 425.006 260.171 425.138C260.171 425.336 259.377 425.733 258.451 426.064C256.995 426.66 256.797 427.056 256.995 429.504C257.127 431.688 257.524 432.481 258.715 433.077C259.509 433.474 260.634 434.4 261.097 435.062C261.891 436.12 261.825 436.385 260.634 436.98C258.517 438.039 258.517 439.825 260.568 442.008C263.876 445.449 267.779 444.059 266.985 439.759C266.654 438.171 266.853 437.973 268.441 437.973C269.962 437.973 270.161 437.708 269.962 436.12C269.83 434.665 270.028 434.334 271.418 434.135C276.247 433.606 277.041 432.878 274.99 430.563C274.064 429.637 274.064 429.372 274.792 429.174C275.321 429.041 276.777 428.578 278.1 428.115C279.357 427.718 282.135 427.387 284.186 427.387C286.303 427.387 289.479 426.792 291.596 425.998C294.706 424.807 295.235 424.41 295.235 422.888C295.235 421.962 294.573 420.507 293.779 419.647L292.324 418.125L293.779 417.066C295.698 415.743 295.632 414.288 293.581 413.494C292.655 413.163 291.927 412.435 291.927 411.84C291.927 411.244 291.332 410.848 290.273 410.848C289.214 410.848 288.619 411.244 288.619 411.906C288.619 412.634 288.09 412.832 286.833 412.7C285.311 412.568 285.046 412.237 285.179 410.848C285.311 409.921 285.443 407.87 285.51 406.216L285.642 403.239L282.466 403.041C276.843 402.644 274.263 405.753 277.703 408.73C279.158 409.987 279.952 412.171 279.026 412.171C278.828 412.171 277.438 411.377 275.917 410.318C274.395 409.326 272.278 408.003 271.153 407.341C267.911 405.356 267.779 405.092 267.779 399.733C267.779 394.969 267.713 394.639 266.324 394.44C264.206 394.109 264.405 393.249 266.787 392.389C268.573 391.794 268.771 391.463 268.771 389.081C268.771 386.832 268.507 386.236 266.919 385.443C265.927 384.913 264.537 383.921 263.876 383.127C262.883 382.068 262.156 381.804 260.237 382.135C258.914 382.333 256.995 382.201 256.003 381.804C254.216 381.142 254.216 381.076 255.275 379.422C256.201 377.967 256.664 377.834 259.178 378.231C261.825 378.562 262.552 378.297 266.853 375.519C271.815 372.343 273.469 372.012 281.011 372.475C284.385 372.608 285.046 373.335 283.723 375.188C282.268 377.305 282.4 378.827 284.12 380.017C286.965 382.068 293.118 381.01 295.235 378.099C295.764 377.371 296.889 376.114 297.815 375.254L299.403 373.799L300.197 375.254C300.925 376.776 302.446 377.04 304.563 376.18C305.82 375.585 309.128 381.936 309.128 385.046C309.128 387.493 310.187 389.677 311.312 389.677C311.775 389.677 312.966 390.735 313.958 391.992C315.083 393.382 316.406 394.308 317.266 394.308C319.118 394.308 325.8 400.527 325.271 401.784C324.742 403.173 326.66 404.562 327.587 403.438C327.984 402.975 329.108 401.519 330.167 400.262C333.012 396.756 333.342 395.896 333.541 390.272C333.541 388.42 334.07 386.766 334.798 385.972C335.46 385.31 336.187 384.185 336.452 383.524C336.981 382.068 335.327 376.643 333.739 374.923C332.879 373.931 332.813 373.402 333.475 371.549C334.467 368.837 334.467 367.447 333.475 365.661C333.012 364.867 332.284 362.882 331.887 361.228C330.895 357.59 331.556 356.465 334.335 357.06C335.989 357.391 336.253 357.193 336.253 356.068C336.253 355.274 336.584 354.48 336.915 354.282C337.312 354.083 337.577 352.826 337.577 351.503C337.577 349.32 336.981 348.526 332.152 343.961C329.108 341.116 326.33 338.8 325.866 338.734C325.47 338.734 322.625 337.676 319.581 336.419C315.083 334.5 313.561 334.103 311.312 334.434C308.864 334.765 308.268 334.632 306.68 333.045L304.894 331.258L306.416 330.663C307.342 330.332 308.996 330.398 310.385 330.795C311.708 331.126 314.487 331.457 316.472 331.457C321.434 331.523 331.159 331.854 332.019 331.986C333.409 332.251 333.541 334.699 332.218 335.096C330.299 335.691 330.564 338.073 332.549 338.073C333.475 338.073 334.93 338.337 335.79 338.668C337.113 339.197 337.312 339.661 337.047 341.381C336.849 342.704 337.113 343.829 337.907 344.689C338.503 345.35 338.834 346.276 338.569 346.673C337.907 347.798 339.561 349.32 341.48 349.32C343.928 349.32 345.251 351.503 343.862 353.488C342.605 355.274 342.605 357.193 343.862 357.656C344.391 357.92 344.854 358.78 344.854 359.641C344.854 361.096 345.119 361.228 347.831 361.228C351.073 361.228 353.719 363.081 353.058 364.801C352.661 365.859 354.116 368.506 356.697 371.285C359.343 374.195 362.717 373.468 362.717 369.895C362.717 368.374 362.783 368.374 363.974 369.432C364.702 370.094 365.363 371.285 365.496 372.078C365.694 373.269 366.091 373.468 368.737 373.402C372.773 373.402 375.618 371.351 376.346 368.043C376.61 366.653 376.875 362.485 376.875 358.78L376.941 351.966H375.023C373.964 351.966 371.185 352.297 368.87 352.76C365.165 353.422 364.371 353.422 362.717 352.429C361.725 351.834 360.071 351.305 359.144 351.305C358.218 351.305 357.226 350.841 356.895 350.246C356.564 349.651 355.175 348.592 353.786 347.798C351.404 346.409 351.272 346.144 351.073 342.902C351.007 340.984 350.345 338.271 349.551 336.948C348.824 335.559 348.096 333.508 347.897 332.449C346.905 327.421 346.707 326.363 346.64 324.047C346.574 322.261 347.037 321.07 348.162 319.879C349.551 318.424 349.618 318.093 348.824 316.571C348.361 315.645 346.376 313.726 344.391 312.271C342.472 310.749 340.885 309.294 340.885 308.963C340.885 308.632 341.546 307.772 342.274 307.044C343.068 306.316 343.531 305.324 343.332 304.795C342.737 303.273 338.371 301.553 334.401 301.355C332.284 301.288 330.167 300.958 329.571 300.759C328.976 300.495 328.182 300.693 327.785 301.222C327.124 301.95 326.263 302.016 323.485 301.553C316.538 300.362 313.892 299.105 311.907 296.194C310.121 293.482 309.988 293.415 306.283 293.415C303.372 293.349 302.248 293.019 300.991 291.894C300.131 291.1 299.138 290.438 298.741 290.438C298.411 290.438 297.551 289.843 296.823 289.049C296.161 288.321 294.639 287.263 293.449 286.8C291.067 285.807 288.95 281.97 288.222 277.207C287.891 275.222 287.428 274.56 286.237 274.296C285.046 273.965 284.65 273.436 284.65 271.98C284.65 269.863 283.789 268.937 281.209 268.275C280.217 268.01 279.092 267.415 278.629 266.886C277.504 265.496 274.726 265.827 271.749 267.614C270.028 268.672 268.11 269.268 266.257 269.268C262.817 269.268 260.171 270.855 260.171 272.906C260.171 273.965 259.708 274.56 258.517 274.825C257.657 275.023 256.201 275.95 255.275 276.876C253.621 278.53 251.57 279.059 251.57 277.868C251.57 277.471 251.901 277.207 252.364 277.207C253.555 277.207 256.863 273.832 256.863 272.575C256.863 272.046 257.789 270.988 258.848 270.392C260.171 269.598 260.832 268.672 260.832 267.547C260.832 266.158 260.568 265.96 258.186 265.96C256.4 265.96 255.54 265.695 255.54 265.033C255.54 263.379 252.298 258.285 250.71 257.425C249.85 256.962 248.924 255.639 248.527 254.514C248.064 252.926 247.336 252.199 245.616 251.669C243.763 251.074 243.168 250.478 242.705 248.494C241.911 245.384 243.036 244.127 247.204 243.664C250.578 243.267 251.239 242.672 251.239 240.158C251.239 237.71 253.29 237.644 254.547 240.091C255.473 241.944 255.87 242.142 258.517 242.142C260.832 242.142 261.891 242.539 263.809 244.193C265.066 245.318 266.125 246.773 266.125 247.501C266.125 248.163 266.72 249.684 267.448 250.875C269.102 253.654 269.102 254.448 267.448 254.911C266.72 255.109 266.125 255.705 266.125 256.3C266.125 257.822 265 257.624 264.603 256.036C264.405 255.176 263.677 254.713 262.619 254.713C260.568 254.713 257.458 257.094 257.921 258.285C258.12 258.814 257.987 259.41 257.591 259.674C257.194 259.873 256.863 260.667 256.863 261.395C256.863 263.776 262.817 264.835 266.059 263.049C266.919 262.585 268.176 262.321 268.838 262.453C270.227 262.85 273.403 260.865 273.403 259.608C273.403 259.079 274.064 258.682 274.924 258.682C276.71 258.682 282.003 254.977 282.003 253.786C282.003 253.323 280.812 250.346 279.357 247.237C277.901 244.127 276.71 241.282 276.71 240.819C276.71 240.356 275.784 238.901 274.726 237.577C266.787 228.249 264.802 225.603 263.942 223.419C262.883 221.038 262.288 220.575 254.018 215.613C251.305 213.959 250.975 213.429 248.99 207.674C247.799 204.233 246.542 199.999 246.277 198.279C245.483 193.913 242.837 189.678 239.397 187.23C236.221 184.915 235.163 183.129 234.633 179.027C234.236 176.579 233.906 176.05 231.193 174.66C227.488 172.676 224.511 168.574 224.445 165.464C224.445 164.207 224.114 162.222 223.651 161.032C222.989 159.179 223.122 158.385 224.643 154.813C225.636 152.563 226.43 150.248 226.43 149.652C226.43 149.057 227.621 146.146 229.076 143.235C230.532 140.324 231.722 137.545 231.722 137.148C231.722 136.685 230.995 135.825 230.068 135.23C229.142 134.634 228.216 133.377 228.018 132.385C227.819 131.459 227.488 130.202 227.356 129.606C227.157 128.812 227.422 128.614 228.547 128.812C229.671 129.011 230.465 128.548 231.59 127.026C232.45 125.901 233.376 125.173 233.707 125.372C234.038 125.57 235.229 125.306 236.354 124.71C237.875 123.916 238.338 123.255 238.338 121.733C238.338 120.013 238.537 119.748 240.257 119.748C243.036 119.748 246.277 116.837 246.277 114.39C246.277 112.405 246.674 112.14 248.527 112.868C249.188 113.133 249.585 114.059 249.585 115.448C249.585 116.97 250.048 117.896 251.107 118.624L252.562 119.616L251.239 121.005C250.313 121.998 248.659 122.527 245.748 122.792C243.499 123.056 241.382 123.586 241.051 123.983C240.323 124.843 242.903 130.863 244.623 132.319C245.153 132.782 245.616 134.171 245.616 135.362C245.616 137.545 245.682 137.611 248.328 137.611C250.71 137.611 251.504 138.008 254.415 140.919C256.267 142.706 258.186 144.227 258.649 144.227C259.178 144.227 260.898 145.087 262.486 146.212C264.074 147.271 265.927 148.197 266.588 148.197C267.316 148.197 268.11 148.461 268.441 148.726C268.838 149.057 270.359 149.652 271.947 150.115C276.314 151.372 277.372 152.762 277.372 157.525C277.372 159.708 277.107 162.024 276.777 162.686C276.314 163.546 276.512 164.406 277.372 165.795C279.621 169.103 279.886 169.632 280.945 171.948C281.871 173.933 281.871 174.329 280.945 176.116C279.489 178.961 280.349 179.556 284.98 178.696C288.685 177.968 289.016 178.034 295.036 180.615C302.512 183.856 308.202 184.65 310.782 182.996C313.032 181.475 312.635 179.953 309.79 178.961C308.07 178.365 307.408 177.704 307.011 176.116C306.548 174.396 306.019 173.999 303.968 173.602C302.645 173.337 299.469 172.08 297.021 170.691C293.316 168.706 291.993 167.449 289.214 163.546C287.428 160.965 285.377 158.716 284.716 158.451C282.929 157.922 281.606 153.423 282.731 151.439C284.65 147.8 286.833 147.403 291.662 149.851C293.449 150.777 296.227 151.703 297.881 151.902C302.645 152.497 303.968 153.291 307.144 157.591C310.981 162.818 312.37 165.332 312.436 167.251C312.436 169.698 315.678 174.66 317.2 174.66C318.986 174.66 321.037 175.851 321.037 176.91C321.037 178.894 323.419 180.019 327.057 179.821C330.63 179.622 330.63 179.622 330.828 177.307C330.961 176.05 331.49 174.528 331.953 173.999C332.681 173.205 332.681 172.345 332.085 169.566C331.622 167.714 331.093 165.927 330.828 165.663C330.564 165.398 330.498 164.538 330.696 163.678C330.961 162.752 330.63 161.825 329.836 161.098C327.653 159.179 321.765 155.474 320.838 155.474C318.854 155.474 313.826 152.762 313.429 151.439C313.164 150.711 312.37 149.785 311.576 149.454C310.055 148.792 308.467 146.08 308.467 144.227C308.467 142.706 309.79 141.581 311.576 141.581C312.436 141.581 313.958 141.184 314.95 140.655C316.009 140.125 318.457 139.728 320.574 139.728C324.014 139.795 324.543 139.993 327.454 142.639C329.836 144.889 331.424 145.683 334.203 146.278C340.488 147.535 341.149 147.998 343.729 152.497C345.053 154.813 347.037 157.327 348.162 158.121C349.221 158.914 350.147 159.907 350.147 160.37C350.147 160.833 350.742 161.759 351.404 162.355C352.992 163.81 356.101 163.281 358.88 161.23C360.468 160.039 360.732 159.51 360.335 157.79C360.137 156.731 358.549 154.283 356.829 152.431C355.175 150.578 352.529 147.403 351.007 145.352C349.287 143.103 347.699 141.581 346.905 141.581C346.243 141.581 345.516 140.985 345.317 140.258C344.92 138.802 342.406 137.611 339.098 137.281C336.32 137.016 336.187 136.884 334.599 133.84C332.747 130.135 331.622 129.011 329.836 129.011C327.917 129.011 327.19 130.598 328.116 133.046C328.91 135.097 328.711 135.296 325.999 134.965C323.419 134.7 321.037 132.914 319.317 129.937C317.067 126.1 317.663 124.843 321.765 124.38C325.205 123.983 325.8 122.659 323.683 119.748C322.691 118.359 321.698 117.764 320.375 117.764C317.332 117.764 316.406 117.102 314.686 113.662C313.759 111.809 312.172 109.891 311.047 109.295C308.798 107.972 308.004 105.921 309.128 103.936C309.856 102.481 315.612 99.2392 317.464 99.2392C318.06 99.2392 320.971 100.496 323.882 102.018C328.645 104.532 329.836 104.863 333.607 104.863C337.907 104.863 338.172 104.73 346.839 99.5038L355.77 94.2111L355.572 91.4324C355.373 89.0507 355.638 88.4553 357.954 86.0735C360.071 83.8903 361.063 83.3611 362.915 83.3611C364.239 83.3611 365.496 83.0302 365.694 82.6995C365.893 82.3025 366.885 82.0379 367.877 82.0379C369.664 82.104 371.847 84.7504 374.03 89.5138C374.692 90.9693 375.287 91.3001 377.206 91.3001C378.529 91.3001 381.837 91.4324 384.549 91.5648L389.511 91.8294L392.819 88.6537C396.59 85.015 398.509 83.9565 401.751 83.4272C403.14 83.1626 404.331 82.501 404.728 81.6409C406.382 78.3991 408.234 76.7451 410.219 76.7451C412.005 76.7451 412.27 76.9436 412.138 78.5315C412.005 80.6485 415.446 83.3611 418.423 83.3611C419.415 83.3611 420.871 83.6918 421.532 84.155C422.525 84.7504 423.12 84.6181 424.576 83.4934L426.428 82.0379L429.802 83.9565C431.655 85.015 434.433 86.0735 435.955 86.3382C437.477 86.6028 439.461 87.3306 440.388 88.0583C442.438 89.6461 445.283 90.2416 447.4 89.4477C448.525 88.9846 449.981 89.1169 452.031 89.7785C454.546 90.5724 459.11 90.9032 473.136 91.3001C474.261 91.3001 478.495 95.8651 478.495 97.0559C478.495 97.5852 478.958 98.8422 479.487 99.9008C480.281 101.422 481.009 101.886 482.398 101.886C485.177 101.886 488.485 99.3053 489.477 96.3943C489.941 95.005 491.396 92.8879 492.719 91.6971C493.976 90.5062 495.035 88.9846 495.035 88.3891C495.035 87.1321 497.483 84.4857 498.277 84.9489C499.07 85.4781 501.651 83.4272 501.651 82.2364C501.651 81.7071 502.445 80.6485 503.371 79.8546C504.694 78.7961 505.025 78.1345 504.694 76.679C504.495 75.5543 504.694 74.5619 505.289 74.0988C506.811 72.8418 506.48 70.857 504.363 68.8723C502.577 67.2183 502.511 66.8213 502.709 62.8518C502.775 60.5362 502.577 58.0883 502.246 57.3606C501.717 56.5005 501.783 55.2435 502.378 53.1926C503.106 50.877 503.569 50.2816 504.76 50.2816C506.216 50.2816 512.699 45.5182 514.882 42.8718C515.742 41.7471 516.139 41.6809 517.661 42.3425C520.109 43.4673 522.755 42.6733 523.549 40.4901C524.409 38.373 523.946 32.4849 522.623 26.4644C522.028 24.0827 521.432 20.2455 521.168 17.8637C520.704 12.968 520.043 11.9094 518.257 13.0342C516.47 14.1589 512.038 11.3802 511.574 8.79999C511.31 7.27832 510.714 6.74908 508.068 5.88898C506.348 5.29358 504.562 4.49963 504.165 4.10272C503.702 3.63959 501.717 3.30878 499.666 3.30878C496.556 3.30878 495.696 3.04419 494.373 1.65485C492.852 0.000854492 490.139 -0.528442 489.477 0.596313ZM115.283 95.6666C115.283 96.1959 115.018 96.4605 114.621 96.262C114.29 96.0636 113.96 95.6004 113.96 95.2035C113.96 94.8727 114.29 94.6081 114.621 94.6081C115.018 94.6081 115.283 95.0712 115.283 95.6666ZM89.2824 264.107C89.15 265.496 89.4147 265.629 92.1272 265.629C94.5751 265.629 95.1043 265.43 95.0382 264.438C94.9059 262.916 95.5675 262.982 96.626 264.636C97.0891 265.364 97.8169 265.96 98.3461 265.96C98.8092 265.96 99.7355 266.555 100.397 267.283C101.853 268.937 108.005 269.201 108.005 267.68C108.005 266.026 109.792 266.026 111.313 267.614C112.504 268.871 112.636 269.4 112.041 270.458C111.644 271.252 111.313 272.708 111.313 273.832C111.313 275.42 111.049 275.883 109.99 275.883C109.262 275.883 108.336 276.479 107.873 277.14C106.814 278.861 105.227 278.133 105.756 276.214C106.087 274.891 105.756 274.428 103.573 273.369C102.183 272.642 99.6693 271.914 97.9492 271.649C95.3028 271.252 94.8397 271.385 94.5751 272.377C94.3104 273.436 94.1781 273.369 93.7812 272.046C93.5165 271.252 92.8549 270.591 92.3257 270.591C91.7964 270.591 90.0763 269.466 88.4885 268.143C85.7759 265.761 85.7098 265.629 86.7683 264.173C88.1577 262.255 89.4808 262.255 89.2824 264.107ZM245.219 281.507C243.036 282.433 242.771 282.367 243.3 281.044C243.565 280.382 244.293 280.184 245.417 280.382L247.137 280.713L245.219 281.507ZM227.356 282.764L229.275 284.352L227.753 285.146C226.562 285.741 225.9 285.741 224.71 285.079C222.989 284.153 222.725 283.161 223.916 281.97C224.974 280.911 225.107 280.978 227.356 282.764ZM240.588 284.286C240.323 284.947 240.058 286.337 240.058 287.461C239.992 289.181 240.191 289.446 241.646 289.247C242.572 289.115 245.483 288.851 248.13 288.586C252.166 288.189 253.224 287.858 254.283 286.535L255.606 284.947L257.127 286.403C258.451 287.66 259.178 287.858 261.692 287.461C263.743 287.13 265.199 287.329 266.522 287.99C269.234 289.38 275.718 294.54 278.761 297.716C280.151 299.105 282.466 301.09 283.988 302.016C285.443 302.942 286.634 304.067 286.634 304.53C286.634 304.993 287.561 306.052 288.619 306.846C289.744 307.706 290.604 308.831 290.604 309.426C290.604 311.212 293.316 313.594 295.301 313.594C297.749 313.594 299.866 315.513 300.197 318.027C300.528 320.607 300.329 320.673 298.08 318.887C296.029 317.299 295.036 317.233 293.912 318.556C293.449 319.151 292.589 319.416 291.993 319.284C291.398 319.151 289.545 318.821 287.891 318.556C285.642 318.291 284.716 317.828 284.451 316.902C284.253 316.24 283.062 315.182 281.739 314.653C279.423 313.726 278.629 312.138 280.018 311.278C280.415 311.08 280.68 309.889 280.68 308.632C280.68 306.118 277.637 303.009 275.189 303.009C274.395 303.009 272.542 302.347 271.021 301.553C267.911 299.965 266.39 300.23 265.463 302.678C265.133 303.604 264.736 304.332 264.537 304.332C264.405 304.332 263.809 304.53 263.28 304.729C262.552 304.993 262.023 304.001 261.097 301.024C259.443 295.533 257.723 293.746 254.084 293.746C252.496 293.746 250.512 293.283 249.651 292.688C248.725 291.96 247.402 291.762 246.013 291.96C244.756 292.158 243.433 291.894 242.639 291.365C241.977 290.835 240.455 290.438 239.397 290.438C237.015 290.438 236.486 290.108 234.501 287.527C232.45 284.881 232.649 284.484 235.957 284.484C237.611 284.484 239.132 284.153 239.331 283.822C240.058 282.632 241.183 283.095 240.588 284.286ZM212.999 330.2C215.778 334.302 215.712 334.302 216.109 336.154C216.307 337.08 217.101 338.668 217.895 339.661C219.682 341.91 222.129 341.778 224.048 339.197C225.173 337.676 225.239 337.147 224.577 336.088C223.85 334.897 223.916 334.765 225.437 334.765C226.562 334.765 227.356 335.36 228.084 336.75C228.679 337.874 230.333 339.33 231.921 340.124C235.427 341.91 235.229 341.711 234.435 343.299C233.773 344.424 234.038 344.887 236.023 346.409C238.14 347.997 238.537 348.063 240.323 347.335C242.572 346.409 244.028 347.137 245.02 349.717C245.483 351.04 246.013 351.172 249.056 351.106C251.967 350.974 252.562 350.775 252.496 349.783C252.43 349.121 252.827 348.658 253.621 348.658C254.547 348.658 254.878 349.121 254.878 350.312C254.878 351.834 255.143 351.966 257.723 351.966C259.311 351.966 260.965 351.569 261.428 351.106C262.089 350.444 262.156 350.577 261.759 351.503C261.428 352.429 261.825 352.892 263.413 353.488C264.537 353.885 265.463 354.679 265.463 355.208C265.463 355.737 265.927 356.663 266.522 357.325C267.514 358.384 267.448 358.582 265.662 359.442C262.685 360.964 260.105 361.295 256.532 360.567C249.056 358.979 248.262 358.979 246.74 360.368C245.947 361.162 244.623 361.956 243.896 362.155C242.109 362.684 240.058 364.933 240.588 365.793C240.786 366.124 241.977 366.653 243.102 366.852C244.293 367.117 246.145 367.977 247.27 368.77C248.328 369.498 249.321 370.16 249.453 370.226C249.519 370.292 249.453 370.755 249.255 371.285C248.659 372.74 244.359 373.335 242.639 372.211C241.911 371.748 238.934 369.035 236.023 366.256C233.112 363.478 229.87 360.831 228.745 360.368C227.687 359.971 224.246 358.317 221.269 356.73C218.226 355.208 213.661 353.488 211.147 352.958C208.633 352.429 205.788 351.437 204.796 350.643C203.87 349.915 202.282 349.32 201.289 349.32C197.386 349.32 190.108 346.21 189.645 344.292C189.05 342.042 186.205 339.859 184.353 340.322C182.699 340.785 180.118 338.867 180.118 337.213C180.118 336.22 173.767 333.177 172.576 333.64C172.113 333.839 170.261 333.706 168.541 333.309C165.894 332.714 165.034 332.78 163.446 333.772C160.8 335.294 160.271 334.434 162.454 332.317C163.843 330.928 164.373 330.663 165.034 331.325C166.291 332.582 168.739 332.251 171.386 330.464C174.23 328.546 175.024 328.414 176.215 329.869C176.744 330.464 177.671 330.795 178.663 330.597C180.912 330.134 185.874 332.515 188.322 335.162C190.638 337.742 192.292 338.007 193.416 336.022C194.012 334.831 194.541 334.699 196.857 335.029C198.378 335.228 201.289 335.559 203.406 335.823L207.111 336.22L208.236 333.905C208.831 332.582 209.162 331.192 208.964 330.861C208.501 330.134 209.89 327.487 210.684 327.487C210.949 327.487 212.007 328.744 212.999 330.2ZM297.22 367.117C297.22 368.109 296.227 368.506 294.706 368.043C292.589 367.513 292.919 366.521 295.235 366.521C296.36 366.521 297.22 366.786 297.22 367.117Z" fill="#8891A6" fill-opacity="0.15"/>
<path d="M373.699 96.4606C367.546 101.555 364.569 108.502 366.951 112.14C367.546 113.066 368.671 113.794 369.531 113.794C371.317 113.794 372.244 114.456 372.839 115.911C373.038 116.573 373.699 117.102 374.228 117.102C374.824 117.102 375.552 117.698 375.949 118.425C376.875 120.212 378.066 120.079 380.447 118.095C381.572 117.168 382.763 116.441 383.16 116.441C383.557 116.441 385.079 116.044 386.534 115.647C389.379 114.72 389.974 113.133 388.453 110.354C387.923 109.428 387.923 108.832 388.453 108.303C388.85 107.906 389.18 106.12 389.18 104.334C389.18 101.423 388.916 100.761 386.534 98.4454C385.079 96.9899 382.961 95.5344 381.771 95.2698C380.58 94.939 378.992 94.4758 378.198 94.2774C377.206 93.9466 376.015 94.542 373.699 96.4606Z" fill="#8891A6" fill-opacity="0.15"/>
<path d="M441.115 122.659C439.659 123.586 437.939 124.38 437.278 124.38C435.756 124.38 435.227 125.901 436.153 127.688C436.55 128.415 438.733 130.4 440.983 132.054C444.82 134.899 445.283 135.097 448.392 134.833C450.245 134.634 452.891 133.973 454.347 133.245C456.662 132.12 456.993 131.657 457.192 129.54C457.324 128.217 457.059 126.497 456.728 125.769C455.736 124.049 451.039 121.866 447.069 121.402C444.291 121.072 443.364 121.27 441.115 122.659Z" fill="#8891A6" fill-opacity="0.15"/>
<path d="M436.815 168.706C436.286 169.037 435.029 169.368 434.036 169.368C432.845 169.368 431.853 169.963 431.059 171.022C430.398 171.948 429.339 173.403 428.744 174.197L427.553 175.653L426.163 173.8C424.245 171.286 422.26 170.625 419.283 171.419C417.629 171.882 416.636 171.882 416.041 171.352C415.379 170.889 414.586 170.889 413.395 171.352C412.402 171.683 410.748 172.014 409.756 172.014C408.764 172.014 407.374 172.411 406.646 172.94C405.588 173.8 405.522 174.131 406.25 175.256C406.646 176.05 407.043 177.24 407.043 178.034C407.043 178.762 407.374 179.953 407.705 180.615C408.168 181.475 408.168 182.004 407.705 182.269C407.374 182.467 407.043 184.452 407.043 186.635C407.043 190.141 407.176 190.538 408.433 190.538C409.161 190.538 410.418 190.208 411.145 189.811C412.27 189.215 412.799 189.414 414.321 191.068C415.512 192.391 417.033 193.185 418.952 193.516C422.194 194.045 423.12 193.251 422.657 190.34C422.194 187.892 422.922 188.091 424.84 190.935C426.23 192.92 429.736 195.17 431.588 195.17C431.853 195.17 432.647 194.111 433.242 192.788C434.169 190.869 434.235 190.141 433.639 189.149C432.448 187.23 432.713 184.253 434.169 182.93C434.896 182.269 435.492 180.945 435.492 179.887C435.492 178.696 436.22 177.505 437.741 176.182C439.792 174.462 439.924 174.131 439.66 171.154C439.329 168.044 438.667 167.515 436.815 168.706Z" fill="#8891A6" fill-opacity="0.15"/>
<path d="M14.7212 184.981C13.4642 185.444 10.5532 185.841 8.30383 185.841C4.33429 185.907 4.20198 185.973 1.88642 188.686C-0.429145 191.531 -0.429145 191.531 0.894033 192.92C1.55562 193.648 1.95257 194.508 1.68794 194.773C1.35714 195.037 1.62178 195.633 2.21721 196.096C2.81264 196.493 3.40807 197.419 3.54039 198.147C3.67271 198.874 4.46661 199.734 5.26052 200.131C6.05443 200.462 7.11297 201.653 7.50992 202.778C7.97303 203.836 9.89164 206.284 11.8764 208.07C14.7874 210.915 15.3828 211.842 15.449 213.892C15.5813 216.605 15.5813 216.671 16.3091 218.987C17.0368 221.17 20.6755 224.941 22.0649 224.941C22.7265 224.941 24.0496 225.669 25.1082 226.529C26.1006 227.389 27.6884 228.315 28.5485 228.58C29.4747 228.844 31.0625 229.638 32.1872 230.3C35.9582 232.615 39.5308 231.358 37.943 228.381C37.6784 227.786 37.2153 226.198 36.9506 224.875C36.4214 221.964 35.0982 220.707 33.1134 221.17C32.1872 221.435 30.2686 220.971 28.1515 219.979C24.9097 218.391 24.7112 218.127 24.2481 215.282C23.785 212.239 24.182 207.078 24.9759 204.961C25.3067 204.101 24.8436 203.572 23.1234 202.844C21.7341 202.315 20.3447 201.058 19.6832 199.867L18.6246 197.816L22.2634 196.228C25.3728 194.839 25.9683 194.309 26.5637 192.06C27.6222 188.289 27.5561 188.091 24.3804 186.701C22.7926 185.973 21.271 185.047 21.0725 184.65C20.4771 183.724 17.6984 183.856 14.7212 184.981Z" fill="#8891A6" fill-opacity="0.15"/>
<path d="M403.934 215.149C402.214 217.597 401.619 219.714 402.082 222.096C402.677 225.338 403.537 226.926 404.728 226.926C405.985 226.926 410.352 220.442 410.352 218.524C410.352 215.811 405.39 213.231 403.934 215.149Z" fill="#8891A6" fill-opacity="0.15"/>
<path d="M494.373 230.829C492.19 231.226 492.057 231.358 492.057 233.806C492.057 236.122 491.859 236.453 490.073 236.982C489.014 237.313 487.625 237.776 487.095 237.974C486.566 238.239 485.706 238.305 485.243 238.239C484.714 238.173 483.986 238.504 483.589 239.033C482.597 240.29 477.502 241.15 476.841 240.224C476.642 239.827 475.981 239.496 475.452 239.496C473.996 239.496 469.233 243.598 469.233 244.789C469.233 245.384 468.902 246.178 468.439 246.641C467.909 247.17 467.909 247.634 468.505 248.361C469.034 249.023 469.1 249.42 468.571 249.751C467.182 250.611 467.909 253.125 470.093 254.779C473.004 256.962 478.429 259.674 482.597 260.998C487.294 262.519 489.742 263.578 489.742 264.041C489.742 264.306 490.602 265.43 491.66 266.555C493.381 268.407 493.976 268.606 497.482 268.606C500.129 268.606 502.114 269.069 503.966 269.995C508.597 272.509 513.361 273.369 518.058 272.642C522.557 271.914 525.468 270.525 525.468 268.937C525.468 268.341 525.865 268.143 526.46 268.341C527.849 268.871 529.239 267.547 529.768 265.232C530.099 263.644 529.834 262.85 528.18 260.931C527.055 259.674 526.129 258.087 526.129 257.425C526.129 256.763 525.666 255.837 525.137 255.374C524.608 254.911 524.144 253.985 524.144 253.257C524.144 252 517.992 245.516 513.89 242.473L512.104 241.15L513.294 238.57C514.551 236.056 514.551 236.056 512.964 234.799C512.104 234.137 511.045 233.542 510.516 233.542C509.986 233.542 509.59 232.88 509.59 231.888V230.234L503.172 230.3C499.6 230.366 495.63 230.565 494.373 230.829ZM500.857 250.677C501.518 251.074 501.121 251.735 499.335 253.257C498.012 254.448 496.622 255.374 496.093 255.374C495.63 255.374 494.571 256.168 493.778 257.094C491.264 259.939 491.396 258.285 493.976 254.448C496.821 250.148 498.607 249.221 500.857 250.677ZM518.852 259.344C518.852 259.674 518.719 260.005 518.587 260.005C518.389 260.005 518.058 259.674 517.859 259.344C517.661 258.947 517.793 258.682 518.124 258.682C518.521 258.682 518.852 258.947 518.852 259.344Z" fill="#8891A6" fill-opacity="0.15"/>
<path d="M332.681 236.32C331.424 238.107 331.358 239.298 332.482 241.679C333.607 244.26 336.518 244.127 337.907 241.481C339.297 238.834 339.165 237.114 337.444 235.923C335.393 234.468 333.872 234.6 332.681 236.32Z" fill="#8891A6" fill-opacity="0.15"/>
<path d="M36.2891 241.878C34.7675 243.399 34.9659 244.855 37.2815 247.634C38.9355 249.618 39.7294 250.081 41.648 250.081C43.9636 250.081 43.9636 250.015 43.5666 247.964C43.1696 246.046 39.0016 240.819 37.8108 240.819C37.5461 240.819 36.8184 241.282 36.2891 241.878Z" fill="#8891A6" fill-opacity="0.15"/>
<path d="M323.22 244.921C320.706 248.891 319.714 250.743 319.714 251.735C319.714 252.132 318.787 253.455 317.663 254.646C315.281 257.16 315.413 258.285 318.258 258.55C321.963 258.947 324.742 256.036 328.711 247.501C329.571 245.649 329.571 244.987 328.91 243.664C327.587 241.216 325.337 241.679 323.22 244.921Z" fill="#8891A6" fill-opacity="0.15"/>
<path d="M285.708 252.662C282.135 256.3 281.805 258.285 284.848 258.417C285.84 258.484 287.031 258.814 287.494 259.277C288.619 260.402 290.471 260.138 290.934 258.682C291.133 257.954 291.795 257.359 292.258 257.359C293.316 257.359 294.573 255.374 294.573 253.72C294.573 252.265 291.596 249.42 290.141 249.42C289.413 249.42 287.494 250.875 285.708 252.662Z" fill="#8891A6" fill-opacity="0.15"/>
<path d="M297.948 250.015C297.154 250.544 297.352 251.405 299.139 254.977C300.329 257.359 301.52 259.344 301.851 259.344C302.182 259.344 302.513 260.138 302.645 261.064C302.777 262.056 303.307 263.049 303.836 263.313C304.365 263.578 305.49 264.107 306.284 264.504C308.732 265.827 310.915 265.43 313.429 263.247C316.671 260.402 316.274 257.359 312.701 257.359C311.841 257.359 311.047 257.094 310.783 256.763C310.584 256.366 309.129 255.44 307.475 254.646C305.887 253.852 303.704 252.331 302.711 251.272C300.859 249.354 299.536 249.023 297.948 250.015Z" fill="#8891A6" fill-opacity="0.15"/>
<path d="M364.503 273.105C363.841 273.832 363.378 275.42 363.378 277.074C363.378 278.53 363.114 279.985 362.717 280.184C362.386 280.382 362.055 281.441 362.055 282.565C362.055 284.153 362.32 284.484 363.577 284.484C364.437 284.484 365.826 285.212 366.686 286.072C367.48 286.998 369.068 287.924 370.127 288.123C372.045 288.586 372.045 288.586 370.722 289.578C369.002 290.769 369.002 291.365 370.788 293.746C372.31 295.863 374.625 296.393 374.625 294.739C374.625 293.614 375.684 293.416 376.279 294.408C377.47 296.327 383.888 294.143 383.888 291.762C383.888 289.446 381.704 286.469 378.529 284.418C375.618 282.499 375.287 282.036 375.287 279.853C375.287 277.074 374.559 276.016 370.987 273.634C367.877 271.583 365.959 271.451 364.503 273.105Z" fill="#8891A6" fill-opacity="0.15"/>
<path d="M448.393 306.912C446.275 307.243 445.68 307.64 445.548 308.83C445.415 309.757 445.878 311.014 446.606 311.808C447.334 312.602 448.062 313.991 448.194 314.917C448.326 316.306 448.789 316.571 450.708 316.637C453.751 316.703 454.479 316.042 455.008 312.866C455.405 310.484 455.273 309.955 453.619 308.235C452.627 307.177 451.634 306.383 451.436 306.383C451.237 306.449 449.848 306.713 448.393 306.912Z" fill="#8891A6" fill-opacity="0.15"/>
<path d="M474.525 308.235C469.96 309.426 469.431 310.088 469.299 314.785C469.233 316.439 469.828 317.63 471.945 319.879C473.467 321.533 475.187 322.856 475.782 322.856C477.436 322.856 478.495 324.179 478.495 326.164C478.495 327.157 479.09 328.48 479.818 329.141C481.207 330.398 481.538 332.449 480.48 333.111C480.149 333.309 479.818 334.037 479.818 334.632C479.818 335.36 478.561 336.286 476.51 337.213C473.334 338.602 471.879 340.454 471.879 343.035C471.879 344.622 482.332 352.628 484.383 352.628C486.434 352.628 487.757 351.569 487.757 349.849C487.757 349.121 488.816 348.261 490.668 347.401C493.579 346.144 493.645 346.078 493.844 342.638C494.042 339.528 494.241 339.065 495.696 338.734C497.549 338.271 497.615 337.808 496.49 330.464C495.762 325.833 495.829 319.217 496.622 314.917C497.284 311.543 495.895 309.955 492.521 310.088C490.403 310.22 489.742 309.955 489.411 309.029C489.213 308.301 488.353 307.573 487.559 307.375C485.045 306.713 479.024 307.11 474.525 308.235Z" fill="#8891A6" fill-opacity="0.15"/>
<path d="M72.941 315.513C72.941 316.373 70.3608 317.1 66.9867 317.167C63.6126 317.233 63.9434 316.373 63.6126 325.701C63.5464 329.207 63.2156 330.332 62.2894 330.795C60.7016 331.655 59.3784 331.06 58.5183 329.075C57.9229 327.818 57.2613 327.487 55.4089 327.487C53.6887 327.487 53.0933 327.752 52.961 328.612C52.8948 329.274 52.8287 330.266 52.6964 330.795C52.6302 331.325 52.564 332.449 52.4979 333.243C52.4317 334.037 51.6378 335.625 50.6454 336.75C49.7192 337.94 48.793 339.661 48.7268 340.587C48.5945 341.579 48.3299 343.233 48.0652 344.358C47.8006 345.946 48.0652 346.806 49.653 348.46C50.7116 349.651 51.9024 350.643 52.3656 350.643C53.2918 350.643 56.4674 348.658 57.2613 347.666C57.9229 346.74 59.0476 348.526 59.0476 350.511C59.0476 353.025 60.1723 354.414 63.3479 355.936L66.3912 357.391L67.9791 355.936C69.3684 354.612 69.8315 354.546 71.4855 355.208C72.544 355.671 74.3303 357.06 75.5873 358.317C77.7044 360.567 77.9029 360.633 81.1447 360.236C82.9971 359.971 84.9157 359.442 85.3788 359.111C86.9005 357.788 86.3051 352.892 84.188 349.518C83.1294 347.798 82.2032 346.078 82.2032 345.681C82.2032 345.284 81.4755 344.226 80.6154 343.432C79.7553 342.638 78.4983 340.587 77.9029 338.933C76.7782 335.956 76.4474 335.823 73.5364 337.014C72.2132 337.543 71.2208 335.559 72.2794 334.5C72.6102 334.169 72.941 332.979 72.941 331.986C72.941 329.538 73.9334 329.604 74.7934 332.052C75.852 335.029 78.1014 336.22 81.0785 335.36C82.9971 334.831 83.5264 334.368 83.5264 333.111C83.5264 332.251 83.1294 331.457 82.7325 331.258C82.0709 331.06 82.0709 330.795 82.7986 329.869C83.5926 328.943 83.5264 328.612 82.534 327.487C81.8724 326.76 80.8139 326.032 80.2185 325.833C79.2261 325.503 79.0938 324.973 79.3584 322.856C79.623 320.739 79.4907 320.144 78.2998 319.416C77.4398 318.887 76.9105 317.894 76.9105 316.77C76.9105 315.182 76.6459 314.917 74.9257 314.917C73.8672 314.917 72.941 315.182 72.941 315.513ZM71.4193 322.989C71.2208 323.518 71.0224 323.319 71.0224 322.592C70.9562 321.864 71.1547 321.467 71.3532 321.731C71.5516 321.93 71.6178 322.525 71.4193 322.989ZM79.5569 331.523C79.5569 331.854 79.2922 332.118 78.8953 332.118C78.5645 332.118 78.2337 331.655 78.2337 331.06C78.2337 330.531 78.5645 330.266 78.8953 330.464C79.2922 330.663 79.5569 331.126 79.5569 331.523Z" fill="#8891A6" fill-opacity="0.15"/>
<path d="M385.872 368.572C381.44 371.218 380.844 373.6 383.425 378.43C384.549 380.547 385.542 381.473 386.997 381.87C389.379 382.465 390.305 383.458 390.636 385.707C390.702 386.633 391.297 387.427 391.893 387.56C393.348 387.824 398.84 393.183 399.369 394.837C399.634 395.565 400.957 397.219 402.28 398.41C403.603 399.601 405.125 401.453 405.522 402.445C405.985 403.438 407.308 404.827 408.499 405.489C409.624 406.216 411.939 408.135 413.593 409.789C418.092 414.089 425.568 416.206 426.891 413.494C430 407.275 429.868 407.738 428.743 405.29C427.883 403.504 426.957 402.842 424.443 402.048C422.723 401.519 419.944 400.99 418.29 400.99C416.107 400.924 415.049 400.593 414.387 399.601C413.659 398.542 412.733 398.277 409.954 398.277C407.97 398.277 406.382 398.013 406.382 397.616C406.382 397.285 406.977 396.028 407.705 394.837C409.293 392.257 409.359 390.801 408.036 389.677C407.44 389.147 407.176 388.287 407.44 387.229C407.771 386.104 407.44 385.178 406.448 384.119C405.257 382.796 405.191 382.399 405.852 380.547C407.109 377.239 406.051 376.18 401.023 375.783C396.921 375.453 396.789 375.386 396.061 373.203C395.664 371.946 394.87 370.557 394.208 370.16C393.613 369.697 393.15 369.035 393.15 368.638C393.15 366.786 388.916 366.72 385.872 368.572Z" fill="#8891A6" fill-opacity="0.15"/>
<path d="M71.0228 373.6C68.7073 376.313 68.3103 377.239 68.3103 379.819C68.3103 382.532 68.6411 383.259 71.2875 386.104C72.9414 387.89 74.2646 389.809 74.2646 390.471C74.2646 391.066 75.5216 392.72 77.1094 394.109C78.6972 395.499 80.682 397.616 81.5421 398.74C82.6668 400.328 83.6592 400.924 84.9162 400.924C87.0994 400.924 88.9519 398.674 88.4226 396.623C87.5625 393.183 93.0537 391.992 95.8324 395.036C97.6849 397.086 99.405 396.69 99.405 394.109C99.405 391.595 99.1403 391.198 95.8986 388.817C94.5754 387.758 92.8553 385.773 92.1275 384.384C90.6058 381.407 86.107 378.43 83.0637 378.43C81.2774 378.43 80.8143 378.033 79.1604 374.592C76.514 369.432 74.7939 369.167 71.0228 373.6Z" fill="#8891A6" fill-opacity="0.15"/>
<path d="M539.163 382.995C536.252 383.722 534.333 384.649 533.671 385.575C533.142 386.369 532.15 387.03 531.488 387.03C530.893 387.03 530.033 387.361 529.57 387.824C528.577 388.817 528.511 395.234 529.437 397.02C530.363 398.74 533.804 398.74 534.73 396.954C535.127 396.293 536.45 395.499 537.707 395.234C540.486 394.705 542.801 396.028 544.323 398.939C545.315 400.791 545.58 400.924 549.285 400.924C552.725 400.924 553.453 400.725 554.776 399.204C556.496 397.153 562.715 394.242 565.494 394.176C568.934 394.109 570.39 391.529 568.14 389.677C567.214 388.883 567.214 388.684 568.206 387.626C569.662 386.038 568.868 385.046 566.089 385.046C564.634 385.046 563.641 384.649 563.377 384.053C563.112 383.193 562.384 383.127 559.936 383.458C558.282 383.722 556.562 384.119 556.232 384.45C555.835 384.715 554.776 384.582 553.916 384.053C549.153 381.341 546.308 381.142 539.163 382.995Z" fill="#8891A6" fill-opacity="0.15"/>
<path d="M286.502 390.14C284.981 390.404 284.65 390.801 284.65 392.191C284.65 393.183 285.179 394.771 285.775 395.631C286.436 396.557 286.833 397.814 286.767 398.41C286.436 400.196 290.406 401.85 292.787 400.99C293.78 400.593 294.772 399.733 294.971 399.137C295.169 398.476 295.963 396.557 296.691 394.837C298.676 390.338 298.146 389.677 292.787 389.743C290.34 389.809 287.495 390.007 286.502 390.14Z" fill="#8891A6" fill-opacity="0.15"/>
<path d="M510.913 395.433C507.208 395.962 506.414 396.359 504.429 398.277C502.18 400.394 500.658 400.659 493.844 400.328C490.668 400.13 490.205 400.328 488.22 402.445C487.096 403.702 485.111 406.283 483.92 408.201C482.2 410.914 481.803 412.038 482.134 413.626L482.597 415.611L487.029 415.148C490.337 414.817 491.793 414.288 493.116 413.097C494.175 412.038 496.358 411.178 499.203 410.583C502.841 409.789 504.231 409.127 507.274 406.481C511.574 402.776 515.081 397.616 514.485 396.028C514.287 395.433 513.758 395.036 513.295 395.036C512.898 395.102 511.839 395.234 510.913 395.433Z" fill="#8891A6" fill-opacity="0.15"/>
<path d="M399.567 414.685C398.443 414.883 398.377 415.346 398.773 417.993C399.17 420.507 399.038 421.168 397.913 422.028C396.127 423.418 395.333 427.917 396.789 428.446C397.318 428.644 397.781 429.438 397.781 430.1C397.781 431.886 400.097 431.621 403.735 429.438C406.713 427.652 407.903 425.336 406.514 423.947C406.117 423.55 405.985 422.359 406.117 421.168C406.713 417.265 403.338 413.891 399.567 414.685Z" fill="#8891A6" fill-opacity="0.15"/>
<path d="M432.713 415.677C431.059 417 430.927 417.463 431.059 421.764L431.191 426.395L435.492 426.196C438.866 425.998 439.99 425.667 440.718 424.675C441.181 424.013 442.174 423.418 442.835 423.418C444.291 423.418 446.275 420.705 445.746 419.316C445.217 417.927 439.66 415.28 438.138 415.677C437.41 415.876 436.749 415.611 436.55 415.082C436.021 413.758 434.764 413.957 432.713 415.677Z" fill="#8891A6" fill-opacity="0.15"/>
<path d="M360.534 419.977C358.549 421.962 358.086 422.888 358.086 424.873C358.086 426.263 358.417 427.387 358.748 427.387C359.144 427.387 359.409 428.115 359.409 428.975C359.409 429.901 359.144 430.827 358.748 431.026C358.417 431.224 358.086 432.746 358.086 434.4C358.086 437.046 358.218 437.311 359.74 437.311C361.725 437.311 366.687 433.011 366.687 431.291C366.687 430.629 367.282 429.769 368.01 429.372C369.796 428.446 369.73 425.535 367.877 423.55C366.951 422.624 366.356 421.168 366.356 419.911C366.356 416.802 363.776 416.802 360.534 419.977Z" fill="#8891A6" fill-opacity="0.15"/>
<path d="M528.115 425.336C526.659 425.733 526.394 426.196 526.064 430.034C525.733 433.209 525.865 434.665 526.593 435.789C527.85 437.642 529.901 438.303 531.158 437.245C532.084 436.451 532.084 435.525 531.092 432.018C530.827 431.224 531.224 430.96 532.547 431.026C535.127 431.026 535.26 429.107 532.878 426.726C530.761 424.609 530.695 424.609 528.115 425.336Z" fill="#8891A6" fill-opacity="0.15"/>
<path d="M291.927 429.306C288.685 429.769 287.561 430.298 282.929 433.408C279.026 436.12 279.158 437.708 283.326 437.576C288.487 437.377 292.589 436.517 293.449 435.392C293.912 434.797 295.433 433.738 296.889 433.011C298.675 432.151 299.535 431.224 299.535 430.364C299.535 428.843 297.087 428.512 291.927 429.306Z" fill="#8891A6" fill-opacity="0.15"/>
<path d="M546.242 442.802C544.654 444.192 544.588 444.522 545.315 445.978C545.779 446.838 546.572 447.83 547.036 448.095C547.565 448.36 547.962 448.955 547.962 449.352C547.962 450.609 551.402 453.851 552.659 453.851C553.321 453.851 553.982 454.38 554.181 455.042C554.379 455.637 555.438 457.159 556.496 458.283C558.481 460.467 558.481 460.797 556.893 466.222C556.496 467.347 556.827 468.075 557.952 469.067C559.87 470.655 564.369 470.854 564.898 469.398C565.163 468.869 566.155 468.406 567.214 468.406C569.397 468.406 570.985 466.222 569.86 464.833C569.463 464.304 569.265 463.51 569.53 462.915C570.059 461.459 568.736 459.342 567.016 458.945C566.155 458.68 565.229 457.886 564.832 457.093C564.435 456.166 562.781 455.108 560.73 454.314C558.018 453.322 557.224 452.66 557.224 451.601C557.224 450.874 556.761 449.617 556.165 448.889C555.636 448.161 554.908 446.507 554.578 445.184C554.048 443.199 553.519 442.67 551.336 442.074C548.094 441.082 548.359 441.016 546.242 442.802Z" fill="#8891A6" fill-opacity="0.15"/>
<path d="M448.128 444.39C447.599 444.589 444.886 446.97 442.174 449.683C439.395 452.395 436.484 454.909 435.624 455.24C433.375 456.1 433.11 457.622 434.962 459.342C436.087 460.401 436.815 461.988 437.079 464.039C437.41 466.024 438.006 467.413 438.866 467.943C439.593 468.406 440.784 469.994 441.446 471.515C442.835 474.757 444.026 475.022 447.069 473.037C448.194 472.309 449.98 471.118 451.105 470.391C453.685 468.737 455.008 465.561 456.067 458.68C457.059 452.263 456.332 448.757 453.355 445.779C451.568 443.993 450.113 443.596 448.128 444.39Z" fill="#8891A6" fill-opacity="0.15"/>
<path d="M365.297 445.713C363.378 446.904 362.055 449.881 362.055 453.057C362.055 454.975 362.254 455.174 363.908 455.042C364.966 454.975 366.686 455.306 367.811 455.769C369.663 456.497 370.127 456.497 371.582 455.372C373.236 454.182 373.699 452.461 373.368 448.227C373.236 447.103 372.905 445.846 372.508 445.382C371.516 444.258 367.348 444.39 365.297 445.713Z" fill="#8891A6" fill-opacity="0.15"/>
<path d="M423.914 450.278C421.664 451.403 417.629 455.108 417.629 456.034C417.629 457.291 414.85 460.467 413.725 460.467C413.064 460.467 411.939 461.128 411.145 461.988C408.036 465.296 410.351 471.052 414.718 471.052C416.901 471.052 417.695 470.258 416.306 469.398C415.644 469.001 415.313 465.759 415.975 465.759C416.107 465.759 417.232 466.355 418.423 467.083C422.657 469.663 425.899 468.604 430.133 463.179C431.919 460.996 432.051 460.401 431.522 458.548C431.059 456.96 431.191 455.703 431.985 453.785C432.515 452.395 432.845 450.741 432.581 450.212C432.118 448.889 426.56 448.889 423.914 450.278Z" fill="#8891A6" fill-opacity="0.15"/>
<path d="M470.093 450.741C467.579 451.601 467.381 452.594 469.233 455.174C470.225 456.563 470.953 456.894 472.144 456.696C474.724 456.166 475.915 454.446 475.32 452.197C474.724 449.947 473.467 449.617 470.093 450.741Z" fill="#8891A6" fill-opacity="0.15"/>
<path d="M379.72 460.268C378.794 461.128 379.323 463.841 380.58 465.23C381.308 466.024 381.771 467.149 381.572 467.744C381.109 469.2 384.616 475.948 385.939 476.213C387.328 476.477 391.827 471.978 391.827 470.258C391.827 467.612 387.063 461.128 385.145 461.128C384.483 461.128 383.756 460.797 383.557 460.467C383.094 459.739 380.381 459.54 379.72 460.268Z" fill="#8891A6" fill-opacity="0.15"/>
<path d="M484.317 469.861C482.597 470.787 481.803 471.581 481.803 472.64C481.803 473.765 480.811 474.559 477.437 476.279C473.599 478.197 473.136 478.66 473.401 480.05C473.666 481.439 473.467 481.638 471.549 481.638C469.034 481.638 465.263 483.358 465.263 484.549C465.263 486.401 467.381 488.253 469.564 488.253C473.533 488.253 479.091 485.607 480.877 482.961C483.126 479.587 488.154 476.213 491.529 475.816C493.712 475.551 494.373 475.22 494.373 474.294C494.373 473.632 493.579 472.64 492.521 472.111C491.529 471.581 490.139 470.589 489.478 469.795C488.022 468.141 487.559 468.141 484.317 469.861Z" fill="#8891A6" fill-opacity="0.15"/>
<path d="M581.372 469.663C575.087 471.118 566.619 476.94 565.097 480.844C564.634 481.968 564.171 482.299 563.178 481.968C562.385 481.704 561.194 482.101 559.871 483.027C558.15 484.35 557.886 484.945 557.886 487.658C557.886 491.495 559.804 494.075 562.848 494.34C564.568 494.539 564.832 494.34 564.899 492.885C564.899 491.958 565.163 490.767 565.494 490.238C565.825 489.709 566.023 488.717 565.957 488.121C565.626 486.335 568.008 485.541 572.11 486.004L575.815 486.467L579.255 483.159C581.835 480.579 583.754 479.454 586.996 478.396C592.222 476.676 594.273 475.352 594.273 473.698C594.273 472.309 591.958 470.391 590.237 470.391C589.642 470.391 588.782 469.927 588.319 469.398C587.393 468.273 587.459 468.273 581.372 469.663Z" fill="#8891A6" fill-opacity="0.15"/>
<path d="M456.2 473.963C454.612 475.286 454.546 475.683 455.273 476.609C455.869 477.337 457.258 477.668 459.375 477.668C461.955 477.668 462.749 477.403 463.279 476.279C463.874 475.22 463.808 474.625 462.882 473.632C461.36 471.912 458.449 472.045 456.2 473.963Z" fill="#8891A6" fill-opacity="0.15"/>
<path d="M442.108 478.727C440.123 480.976 440.123 481.174 441.181 482.365C443.497 484.945 448.128 483.093 447.797 479.785C447.665 478.793 447.533 477.602 447.466 477.139C447.334 475.419 444.225 476.345 442.108 478.727Z" fill="#8891A6" fill-opacity="0.15"/>
<path d="M371.252 481.042C370.193 482.101 369.995 482.895 370.325 484.813C370.656 486.864 370.458 487.393 369.267 488.121C368.076 488.915 367.547 488.849 365.628 487.856C363.842 486.864 363.312 486.798 362.452 487.526C361.857 488.055 361.394 488.849 361.394 489.312C361.394 490.503 360.468 490.503 359.409 489.246C358.615 488.32 358.417 488.32 357.358 489.246C355.506 490.966 354.712 493.745 354.91 497.582C355.109 501.088 355.109 501.154 357.094 500.956C358.218 500.824 361.791 500.559 365.099 500.294C369.002 499.964 371.715 499.368 372.839 498.64C374.493 497.582 374.626 497.119 374.626 493.149C374.626 487.79 375.684 487.063 378.926 490.238C381.109 492.355 381.242 492.421 382.896 491.297C383.822 490.701 384.55 489.577 384.55 488.849C384.55 487.393 381.572 484.284 380.117 484.284C379.455 484.284 379.323 483.887 379.588 482.961C380.249 480.844 378.794 479.653 375.552 479.653C373.501 479.653 372.244 480.05 371.252 481.042Z" fill="#8891A6" fill-opacity="0.15"/>
<path d="M430.265 485.342C429.14 486.269 428.214 487.658 428.214 488.386C428.214 489.047 427.949 490.172 427.553 490.834C427.023 491.826 427.619 492.62 430.993 495.266C438.138 501.022 439.395 501.353 440.85 497.714C441.247 496.722 441.909 495.2 442.24 494.472C443.1 492.554 441.909 490.304 439.461 489.51C438.469 489.113 436.682 487.658 435.558 486.203C434.367 484.813 433.176 483.622 432.845 483.622C432.514 483.622 431.39 484.416 430.265 485.342Z" fill="#8891A6" fill-opacity="0.15"/>
<path d="M418.291 492.355C416.041 493.877 413.13 498.707 413.064 500.956C412.998 501.882 413.527 502.147 415.38 502.147C417.364 502.147 418.224 501.618 421.334 498.376C424.774 494.737 426.031 491.561 424.113 491.561C423.649 491.561 422.657 491.363 421.929 491.164C421.135 490.966 419.68 491.429 418.291 492.355Z" fill="#8891A6" fill-opacity="0.15"/>
<path d="M628.675 493.943C626.426 495.862 623.78 500.493 624.375 501.485C624.574 501.882 625.301 502.147 625.897 502.147C627.22 502.213 628.742 503.338 629.734 505.124C630.726 506.976 632.711 507.109 634.828 505.455C636.416 504.198 636.548 503.801 636.284 499.964C635.887 493.943 635.093 492.223 632.711 492.223C631.586 492.223 629.932 492.951 628.675 493.943Z" fill="#8891A6" fill-opacity="0.15"/>
<path d="M395.4 497.846C394.936 499.037 396.789 502.081 398.311 502.61C398.906 502.875 400.295 503.735 401.288 504.595C402.479 505.521 404.066 506.116 405.456 506.116C407.374 506.116 407.705 505.918 407.705 504.595C407.705 500.559 396.657 494.539 395.4 497.846Z" fill="#8891A6" fill-opacity="0.15"/>
<path d="M514.419 498.508C514.221 499.103 514.552 500.096 515.081 500.691C516.073 501.75 516.073 501.948 514.882 502.61C513.956 503.271 513.493 503.205 512.898 502.478C511.971 501.353 507.87 501.154 507.274 502.213C506.348 503.668 507.671 508.498 509.59 510.615C512.633 513.989 516.867 513.328 516.867 509.424C516.867 506.844 517.595 506.315 521.697 505.785C525.005 505.389 525.468 505.124 525.468 503.867C525.468 501.948 523.814 499.699 521.498 498.508C518.918 497.185 514.949 497.185 514.419 498.508Z" fill="#8891A6" fill-opacity="0.15"/>
<path d="M576.542 498.64C574.558 500.294 574.094 503.007 575.418 504.396C577.799 506.712 583.687 504.992 583.687 501.948C583.687 498.045 579.453 496.192 576.542 498.64Z" fill="#8891A6" fill-opacity="0.15"/>
<path d="M659.77 510.747C659.241 511.74 658.381 512.071 656.529 512.071C655.007 512.071 653.088 512.666 651.765 513.592C648.06 516.04 640.386 520.407 638.136 521.267C637.012 521.73 635.292 523.251 634.365 524.707C633.439 526.096 631.785 527.684 630.727 528.213C628.94 529.206 627.816 531.058 627.022 534.631C626.757 535.755 625.434 537.145 623.317 538.534C620.075 540.651 619.149 542.636 621.067 543.43C621.597 543.628 622.06 544.158 622.06 544.687C622.06 545.15 622.986 546.407 624.045 547.466C626.426 549.781 626.492 551.237 624.442 557.323C622.986 561.624 622.92 562.087 623.846 564.005C624.442 565.196 626.029 566.718 627.75 567.644C630.594 569.232 630.594 569.232 632.116 567.975C636.549 564.27 638.269 562.285 640.65 558.183C642.304 555.405 644.289 553.089 645.943 551.964C648.391 550.377 648.722 550.31 651.236 551.038C652.758 551.501 654.213 551.634 654.478 551.303C654.742 551.038 655.139 549.384 655.338 547.73C655.669 545.15 655.536 544.488 654.478 543.761C653.353 542.967 653.287 542.636 654.015 541.181C654.478 540.254 655.536 539.196 656.33 538.865C657.19 538.468 658.05 537.476 658.249 536.549C658.447 535.623 659.043 534.3 659.506 533.572C660.035 532.844 660.432 531.521 660.432 530.595C660.432 529.669 661.027 527.949 661.755 526.758C662.483 525.567 663.078 523.979 663.078 523.185C663.078 522.391 663.74 521.068 664.468 520.274C665.659 518.951 665.791 518.488 665.129 516.702C664.6 515.18 664.666 514.32 665.195 513.394C665.857 512.401 665.791 511.872 664.798 510.814C663.211 509.027 660.697 509.027 659.77 510.747Z" fill="#8891A6" fill-opacity="0.15"/>
<path d="M592.751 510.483C592.487 510.747 591.494 510.946 590.502 511.012C588.782 511.078 588.649 511.343 588.451 513.989C588.186 517.297 589.576 519.348 592.024 519.348C592.884 519.348 593.876 519.877 594.207 520.605C595.596 523.185 601.418 522.656 602.741 519.745C603.535 517.959 602.675 516.04 601.021 516.04C600.426 516.04 598.904 514.651 597.647 513.063C595.662 510.35 593.81 509.424 592.751 510.483Z" fill="#8891A6" fill-opacity="0.15"/>
<path d="M437.278 515.18C436.153 516.239 436.947 518.157 438.667 518.753C442.306 520.01 442.769 525.964 439.197 525.964C438.337 525.964 437.278 526.361 436.881 526.824C435.558 528.478 438.403 530.198 442.968 530.463C447.136 530.727 447.136 530.727 448.326 528.412C450.774 523.979 448.525 518.356 443.298 515.643C441.446 514.651 438.006 514.386 437.278 515.18Z" fill="#8891A6" fill-opacity="0.15"/>
<path d="M467.447 522.722C464.999 524.31 464.8 525.038 466.322 527.155C467.182 528.412 467.91 528.677 470.755 528.544C472.673 528.544 474.856 528.677 475.65 528.941C477.503 529.537 479.024 527.089 477.767 525.567C477.37 525.038 476.709 524.641 476.312 524.641C475.915 524.641 474.989 524.045 474.261 523.384C472.078 521.333 469.828 521.134 467.447 522.722Z" fill="#8891A6" fill-opacity="0.15"/>
<path d="M245.351 526.03C243.102 528.676 242.572 530.926 243.499 534.168C243.896 535.822 243.962 538.005 243.631 539.791C243.3 541.71 243.366 543.298 243.962 544.621C244.888 546.87 251.173 551.898 251.967 551.104C252.298 550.774 253.621 550.443 254.878 550.31C256.995 550.112 257.193 549.913 257.392 547.796C257.723 543.628 258.12 542.636 259.84 542.239C263.346 541.379 261.229 537.079 255.275 533.043C254.349 532.381 252.893 530.595 252.165 529.073C250.445 525.699 248.99 523.979 247.865 523.979C247.402 523.979 246.277 524.905 245.351 526.03Z" fill="#8891A6" fill-opacity="0.15"/>
<path d="M608.365 532.58C607.174 533.043 606.844 533.771 606.844 535.491C606.844 538.27 607.637 538.6 612.401 537.939C616.833 537.343 617.627 536.748 617.297 534.168C617.098 532.315 616.966 532.249 613.459 532.117C611.475 532.051 609.159 532.249 608.365 532.58Z" fill="#8891A6" fill-opacity="0.15"/>
<path d="M272.079 573.135C272.079 576.576 276.314 582.067 278.298 581.339C279.026 581.074 279.357 580.082 279.357 578.296C279.357 576.046 279.026 575.385 276.777 573.665C273.667 571.151 272.079 571.018 272.079 573.135Z" fill="#8891A6" fill-opacity="0.15"/>
<path d="M583.886 574.326C583.489 574.723 582.431 575.451 581.57 575.848C580.247 576.509 580.049 577.105 580.049 580.545C580.049 583.258 579.652 585.044 578.924 586.169C578.263 587.029 577.733 588.418 577.733 589.212C577.733 590.072 577.005 591.594 576.079 592.652C572.771 596.622 572.507 599.797 575.285 601.319C576.609 601.981 576.807 602.576 576.675 605.222C576.609 606.942 576.344 609.39 576.079 610.713C575.682 612.764 575.881 613.36 577.932 615.477C579.189 616.8 580.644 617.925 581.24 617.925C582.695 617.925 585.143 614.617 584.812 613.161C584.415 611.772 585.209 611.11 587.525 611.044C589.973 610.978 590.833 607.935 589.245 605.487C588.583 604.495 588.12 603.171 588.252 602.51C588.319 601.782 587.194 599.797 585.672 598.011L582.894 594.703L584.349 591.263C585.143 589.344 586.135 587.426 586.599 586.896C586.995 586.367 587.392 584.316 587.459 582.265C587.525 580.214 587.657 577.502 587.789 576.245C587.988 574.194 587.789 573.929 586.334 573.731C585.408 573.598 584.349 573.863 583.886 574.326Z" fill="#8891A6" fill-opacity="0.15"/>
<path d="M307.871 594.505C306.482 596.291 306.416 597.945 307.54 606.81C307.937 609.721 307.805 609.986 306.217 610.383C304.96 610.713 304.166 610.383 302.843 608.993C301.52 607.472 301.189 606.479 301.189 603.634C301.189 600.525 300.991 600.062 299.932 600.062C298.41 600.062 295.896 603.833 295.896 606.148C295.896 607.075 295.698 608.001 295.433 608.266C295.169 608.53 294.904 611.177 294.838 614.154C294.772 617.329 294.309 620.571 293.713 621.894C293.184 623.151 292.853 625.136 293.052 626.261C293.25 627.584 292.985 628.576 292.324 629.106C290.471 630.627 291.133 632.678 294.507 635.986C297.286 638.699 298.08 639.096 300.461 639.096C301.983 639.096 303.835 639.426 304.629 639.823C305.556 640.353 306.482 640.353 307.673 639.823C309.79 639.029 316.538 638.831 324.279 639.36C329.108 639.691 330.101 639.956 331.688 641.477C333.342 643.065 333.938 643.197 342.274 643.528C347.17 643.727 353.521 643.925 356.432 643.925C360.666 644.058 362.188 644.322 364.04 645.513C365.297 646.373 367.414 647.035 368.671 647.035C370.391 647.035 371.516 647.63 373.435 649.483C375.882 651.864 376.081 651.93 381.837 652.195C389.577 652.592 390.239 653.187 389.974 659.803C389.842 662.384 389.445 664.898 389.048 665.361C388.717 665.824 388.519 666.684 388.783 667.213C389.114 668.139 390.702 668.206 402.214 667.875C409.425 667.61 416.57 667.412 418.026 667.478C419.746 667.544 421.069 667.147 421.598 666.552C422.194 665.89 423.715 665.559 426.494 665.559C429.537 665.559 431.39 665.096 434.168 663.773C437.476 662.119 438.469 661.92 445.746 661.92C451.767 661.854 454.281 661.59 456.266 660.73C458.25 659.869 460.764 659.605 467.843 659.605C475.253 659.605 477.569 659.34 480.744 658.282C483.986 657.091 485.508 656.959 490.668 657.289C494.373 657.554 497.086 658.083 497.747 658.679C499.335 660.134 503.238 659.803 507.34 657.752C510.714 656.165 511.244 655.503 513.361 651.401C514.618 648.953 515.676 645.976 515.809 644.785C515.875 643.661 516.272 642.073 516.735 641.279C517.859 639.228 517.727 637.706 516.272 637.309C515.61 637.177 514.684 636.251 514.287 635.325C513.625 633.869 513.758 633.406 515.544 631.421C516.602 630.164 517.529 628.378 517.529 627.518C517.529 626.062 517.198 625.864 515.279 625.864C513.625 625.864 512.898 626.195 512.633 627.055C512.368 627.782 511.574 628.642 510.714 629.106C509.92 629.503 508.531 630.892 507.671 632.149C506.811 633.406 505.422 635.192 504.495 636.185C503.04 637.772 502.775 637.839 501.783 636.912C501.121 636.317 499.203 635.523 497.549 635.06C494.439 634.2 494.307 634.266 491.33 636.317C489.477 637.706 487.162 638.632 485.243 638.897C483.126 639.162 481.538 639.823 480.347 641.014C479.421 641.94 478.296 642.999 477.833 643.396C477.436 643.727 476.709 644.653 476.246 645.381C475.319 646.638 475.319 646.638 472.938 645.381C471.614 644.653 470.424 643.661 470.291 643.065C469.762 641.213 470.357 637.905 471.416 636.185C472.673 634.332 472.871 631.487 471.879 630.826C471.416 630.561 471.548 629.9 472.21 628.973C474.062 626.261 473.533 625.335 469.762 625.004C467.843 624.805 465.329 624.474 464.271 624.21C462.749 623.879 460.5 624.474 455.339 626.459C451.502 627.981 447.797 629.172 447.069 629.172C446.408 629.172 444.754 628.113 443.431 626.856L441.115 624.541L435.293 625.202C432.051 625.599 429.074 625.665 428.677 625.401C428.214 625.07 425.369 624.871 422.26 624.871C416.703 624.871 416.636 624.871 416.504 623.217C416.504 622.291 416.438 621.233 416.372 620.77C416.239 619.116 412.071 617.991 406.051 618.057C402.809 618.057 399.634 618.322 399.038 618.653C398.377 618.983 396.987 618.917 395.73 618.52C394.473 618.189 391.43 617.859 388.85 617.792C385.012 617.726 383.623 618.057 380.58 619.579C376.676 621.563 369.531 623.416 366.356 623.284C365.297 623.284 362.982 623.681 361.328 624.21C358.681 625.136 358.02 625.136 355.969 624.276C353.653 623.284 353.587 623.217 353.322 618.653C352.992 612.632 352.33 611.904 348.824 613.889C346.773 615.014 345.913 615.212 344.854 614.617C343.134 613.691 343.134 612.764 344.986 612.5C345.78 612.367 346.971 611.375 347.633 610.25C348.824 608.266 348.824 608.001 347.765 605.355C346.574 602.444 343.994 600.723 340.752 600.723C338.9 600.723 336.253 602.444 336.253 603.701C336.253 604.164 335.393 605.487 334.335 606.612C332.151 608.993 329.637 609.192 321.5 607.869C316.207 607.009 315.149 606.148 315.082 602.841C315.082 601.65 314.752 600.062 314.421 599.4C313.892 598.474 313.958 597.68 314.553 596.754C315.281 595.497 315.215 595.166 313.825 594.041C311.708 592.321 309.459 592.454 307.871 594.505Z" fill="#8891A6" fill-opacity="0.15"/>
<path d="M566.155 613.294C565.428 613.624 563.972 613.889 562.847 613.955C561.326 614.021 560.4 614.683 558.746 616.999C556.232 620.373 556.099 621.299 557.753 622.754C559.539 624.342 560.929 624.144 564.369 621.828C566.023 620.703 568.405 619.645 569.596 619.446C571.117 619.182 571.779 618.719 571.779 617.925C571.779 617.263 571.977 615.808 572.176 614.683C572.573 612.632 572.573 612.632 570.059 612.698C568.603 612.698 566.883 612.963 566.155 613.294Z" fill="#8891A6" fill-opacity="0.15"/>
<path d="M335.261 673.035C332.284 674.821 332.549 675.814 336.584 678.328C338.437 679.519 340.223 680.114 341.348 679.982C343.134 679.783 343.2 679.651 343.002 676.475C342.869 674.689 342.406 672.969 342.009 672.704C340.818 671.91 336.783 672.175 335.261 673.035Z" fill="#8891A6" fill-opacity="0.15"/>
</svg>
