<svg xmlns="http://www.w3.org/2000/svg" xmlns:xlink="http://www.w3.org/1999/xlink"><symbol id="arrow-left" viewBox="0 0 15 12"><path d="M13.93 7.01H3.76l3.58 3.38a.887.887 0 010 1.33 1.028 1.028 0 01-1.41 0L.01 6 5.93.27a1.055 1.055 0 011.41 0 .9.9 0 010 1.34l-3.61 3.4L14 5.03a.975.975 0 011.01.94 1.125 1.125 0 01-1.08 1.04z"/></symbol><symbol id="arrow-right-blue"><path d="M23.854 7.646l-7.5-7.5a.5.5 0 10-.707.708L22.293 7.5H.5a.5.5 0 100 1h21.793l-6.646 6.646a.5.5 0 10.707.707l7.5-7.5a.5.5 0 000-.707z" fill="#477AFB"/></symbol><symbol id="arrow-right" viewBox="0 0 15 12"><path d="M1.07 4.99h10.17L7.66 1.61a.887.887 0 010-1.33 1.028 1.028 0 011.41 0L14.99 6l-5.92 5.73a1.055 1.055 0 01-1.41 0 .9.9 0 010-1.34l3.61-3.4L1 6.97a.975.975 0 01-1.01-.94 1.125 1.125 0 011.08-1.04z"/></symbol><symbol id="clip"><path d="M3.38 20.03A3.2 3.2 0 011.07 19a3.928 3.928 0 010-5.41l11.2-12.31c1.75-1.81 4.42-1.65 6.38.38a5.088 5.088 0 011.34 3.59 5.26 5.26 0 01-1.4 3.57l-8.47 9.33a.6.6 0 01-.88.02.665.665 0 01-.03-.91l8.48-9.34a4 4 0 001.06-2.69 3.79 3.79 0 00-.99-2.66c-1.19-1.24-3.14-1.89-4.6-.38L1.97 14.49a2.6 2.6 0 00-.02 3.59 1.942 1.942 0 001.54.65 2.484 2.484 0 001.61-.83l8.92-9.81c.32-.34.97-1.16.31-1.84a.862.862 0 00-.73-.36 1.473 1.473 0 00-.83.51l-6.71 7.38a.61.61 0 01-.88.03.678.678 0 01-.03-.92l6.72-7.39a2.626 2.626 0 011.62-.9 2.058 2.058 0 011.72.73c.96 1 .84 2.47-.3 3.66L6 18.8a3.724 3.724 0 01-2.43 1.22 1.275 1.275 0 01-.19.01z"/></symbol><symbol id="home" viewBox="0 0 22 20"><path d="M21.212 10.377a1.524 1.524 0 01-1.437.998h-.525v7.563c0 .38-.308.687-.688.687h-4.125v-4.812A3.441 3.441 0 0011 11.375a3.441 3.441 0 00-3.438 3.438v4.812H3.437a.688.688 0 01-.687-.687v-7.563h-.526c-.646 0-1.21-.391-1.437-.997a1.525 1.525 0 01.426-1.699l8.03-7.603a2.556 2.556 0 013.514 0l8.049 7.621c.466.407.634 1.073.406 1.68z"/></symbol><symbol id="messanger" viewBox="0 0 25 24"><path d="M12.484 0C5.587 0 0 4.986 0 11.144c0 3.514 1.81 6.638 4.65 8.68l.063 3.905c0 .21.25.33.437.24l3.901-2.102c1.093.27 2.247.42 3.465.42C19.413 22.288 25 17.303 25 11.145S19.35 0 12.484 0zm.905 14.778l-2.652-2.673a.54.54 0 00-.593-.09l-4.682 2.433a.176.176 0 01-.219-.27l5.525-5.647a.447.447 0 01.593 0l2.653 2.733c.156.15.405.21.593.09l4.588-2.403c.187-.09.343.12.218.27l-5.43 5.557a.447.447 0 01-.594 0z"/></symbol><symbol id="microphone"><path d="M6.12 13.75h-.14A2.948 2.948 0 013 10.7V3.25A3.13 3.13 0 015.98 0h.14A3.053 3.053 0 019 3.25v7.45a2.87 2.87 0 01-2.88 3.05zm-.14-12.5a1.9 1.9 0 00-1.78 2v7.45a1.712 1.712 0 001.78 1.8h.14a1.65 1.65 0 001.68-1.8V3.25a1.818 1.818 0 00-1.68-2h-.14zm.92 15.62H5.12C1.72 16.87 0 14.4 0 10.1V7.5a.6.6 0 111.2 0v2.6c0 2.52.49 5.52 3.92 5.52H6.9c2.62 0 3.9-1.8 3.9-5.52V7.5a.6.6 0 111.2 0v2.6c0 5.6-2.77 6.77-5.1 6.77zm-1.5-.62h1.2V20H5.4v-3.75zm-3 2.5h7.2a.626.626 0 010 1.25H2.4a.626.626 0 010-1.25z"/></symbol></svg>