<svg xmlns="http://www.w3.org/2000/svg" xmlns:xlink="http://www.w3.org/1999/xlink"><symbol id="arrow-left" viewBox="0 0 15 12"><path d="M13.93 7.01H3.76l3.58 3.38a.887.887 0 010 1.33 1.028 1.028 0 01-1.41 0L.01 6 5.93.27a1.055 1.055 0 011.41 0 .9.9 0 010 1.34l-3.61 3.4L14 5.03a.975.975 0 011.01.94 1.125 1.125 0 01-1.08 1.04z"/></symbol><symbol id="arrow-right-blue"><path d="M23.854 7.646l-7.5-7.5a.5.5 0 10-.707.708L22.293 7.5H.5a.5.5 0 100 1h21.793l-6.646 6.646a.5.5 0 10.707.707l7.5-7.5a.5.5 0 000-.707z" fill="#477AFB"/></symbol><symbol id="arrow-right" viewBox="0 0 15 12"><path d="M1.07 4.99h10.17L7.66 1.61a.887.887 0 010-1.33 1.028 1.028 0 011.41 0L14.99 6l-5.92 5.73a1.055 1.055 0 01-1.41 0 .9.9 0 010-1.34l3.61-3.4L1 6.97a.975.975 0 01-1.01-.94 1.125 1.125 0 011.08-1.04z"/></symbol><symbol id="clip"><path d="M3.38 20.03A3.2 3.2 0 011.07 19a3.928 3.928 0 010-5.41l11.2-12.31c1.75-1.81 4.42-1.65 6.38.38a5.088 5.088 0 011.34 3.59 5.26 5.26 0 01-1.4 3.57l-8.47 9.33a.6.6 0 01-.88.02.665.665 0 01-.03-.91l8.48-9.34a4 4 0 001.06-2.69 3.79 3.79 0 00-.99-2.66c-1.19-1.24-3.14-1.89-4.6-.38L1.97 14.49a2.6 2.6 0 00-.02 3.59 1.942 1.942 0 001.54.65 2.484 2.484 0 001.61-.83l8.92-9.81c.32-.34.97-1.16.31-1.84a.862.862 0 00-.73-.36 1.473 1.473 0 00-.83.51l-6.71 7.38a.61.61 0 01-.88.03.678.678 0 01-.03-.92l6.72-7.39a2.626 2.626 0 011.62-.9 2.058 2.058 0 011.72.73c.96 1 .84 2.47-.3 3.66L6 18.8a3.724 3.724 0 01-2.43 1.22 1.275 1.275 0 01-.19.01z"/></symbol><symbol id="facebook" viewBox="0 0 16 16"><path d="M4.217 8.522H5.97v7.22c0 .142.115.258.258.258h2.974a.258.258 0 00.258-.258V8.556h2.016a.258.258 0 00.256-.229l.306-2.658a.258.258 0 00-.256-.288H9.461V3.715c0-.502.27-.757.804-.757h1.518a.258.258 0 00.258-.258V.26a.258.258 0 00-.258-.258H9.69C9.676.002 9.643 0 9.595 0c-.363 0-1.626.071-2.623.988-1.104 1.017-.95 2.234-.914 2.445V5.38H4.217a.258.258 0 00-.258.258v2.624c0 .143.115.259.258.259z"/></symbol><symbol id="google-plus" viewBox="0 0 604.35 604.35"><path d="M516.375 255v-76.5h-51V255h-76.5v51h76.5v76.5h51V306h76.5v-51h-76.5zm-196.35 86.7l-28.051-20.4c-10.2-7.649-20.399-17.85-20.399-35.7s12.75-33.15 25.5-40.8c33.15-25.5 66.3-53.55 66.3-109.65 0-53.55-33.15-84.15-51-99.45h43.35l30.6-35.7h-158.1c-112.2 0-168.3 71.4-168.3 147.9 0 58.65 45.9 122.4 127.5 122.4h20.4c-2.55 7.65-10.2 20.4-10.2 33.15 0 25.5 10.2 35.7 22.95 51-35.7 2.55-102 10.2-150.45 40.8-45.9 28.05-58.65 66.3-58.65 94.35 0 58.65 53.55 114.75 168.3 114.75 137.7 0 204.001-76.5 204.001-150.449-.001-53.551-28.051-81.601-63.751-112.201zm-193.8-232.05c0-56.1 33.15-81.6 68.85-81.6 66.3 0 102 89.25 102 140.25 0 66.3-53.55 79.05-73.95 79.05-63.75 0-96.9-79.05-96.9-137.7zm91.799 459c-84.15 0-137.7-38.25-137.7-94.351 0-56.1 51-73.95 66.3-81.6 33.15-10.2 76.5-12.75 84.15-12.75h17.85c61.2 43.35 86.7 61.2 86.7 102 0 48.451-48.449 86.701-117.3 86.701z"/></symbol><symbol id="home" viewBox="0 0 22 20"><path d="M21.212 10.377a1.524 1.524 0 01-1.437.998h-.525v7.563c0 .38-.308.687-.688.687h-4.125v-4.812A3.441 3.441 0 0011 11.375a3.441 3.441 0 00-3.438 3.438v4.812H3.437a.688.688 0 01-.687-.687v-7.563h-.526c-.646 0-1.21-.391-1.437-.997a1.525 1.525 0 01.426-1.699l8.03-7.603a2.556 2.556 0 013.514 0l8.049 7.621c.466.407.634 1.073.406 1.68z"/></symbol><symbol id="instagram" viewBox="0 0 97.395 97.395"><path d="M12.501 0h72.393c6.875 0 12.5 5.09 12.5 12.5v72.395c0 7.41-5.625 12.5-12.5 12.5H12.501C5.624 97.395 0 92.305 0 84.895V12.5C0 5.09 5.624 0 12.501 0zm58.447 10.821a4.395 4.395 0 00-4.383 4.385v10.495a4.396 4.396 0 004.383 4.385h11.008a4.398 4.398 0 004.385-4.385V15.206a4.397 4.397 0 00-4.385-4.385H70.948zm15.439 30.367h-8.572a28.486 28.486 0 011.25 8.355c0 16.2-13.556 29.332-30.275 29.332-16.718 0-30.272-13.132-30.272-29.332 0-2.904.438-5.708 1.25-8.355h-8.945v41.141a3.884 3.884 0 003.872 3.872h67.822a3.883 3.883 0 003.872-3.872V41.188h-.002zM48.789 29.533c-10.802 0-19.56 8.485-19.56 18.953s8.758 18.953 19.56 18.953c10.803 0 19.562-8.485 19.562-18.953s-8.758-18.953-19.562-18.953z"/></symbol><symbol id="messanger" viewBox="0 0 25 24"><path d="M12.484 0C5.587 0 0 4.986 0 11.144c0 3.514 1.81 6.638 4.65 8.68l.063 3.905c0 .21.25.33.437.24l3.901-2.102c1.093.27 2.247.42 3.465.42C19.413 22.288 25 17.303 25 11.145S19.35 0 12.484 0zm.905 14.778l-2.652-2.673a.54.54 0 00-.593-.09l-4.682 2.433a.176.176 0 01-.219-.27l5.525-5.647a.447.447 0 01.593 0l2.653 2.733c.156.15.405.21.593.09l4.588-2.403c.187-.09.343.12.218.27l-5.43 5.557a.447.447 0 01-.594 0z"/></symbol><symbol id="microphone"><path d="M6.12 13.75h-.14A2.948 2.948 0 013 10.7V3.25A3.13 3.13 0 015.98 0h.14A3.053 3.053 0 019 3.25v7.45a2.87 2.87 0 01-2.88 3.05zm-.14-12.5a1.9 1.9 0 00-1.78 2v7.45a1.712 1.712 0 001.78 1.8h.14a1.65 1.65 0 001.68-1.8V3.25a1.818 1.818 0 00-1.68-2h-.14zm.92 15.62H5.12C1.72 16.87 0 14.4 0 10.1V7.5a.6.6 0 111.2 0v2.6c0 2.52.49 5.52 3.92 5.52H6.9c2.62 0 3.9-1.8 3.9-5.52V7.5a.6.6 0 111.2 0v2.6c0 5.6-2.77 6.77-5.1 6.77zm-1.5-.62h1.2V20H5.4v-3.75zm-3 2.5h7.2a.626.626 0 010 1.25H2.4a.626.626 0 010-1.25z"/></symbol><symbol id="send" viewBox="0 0 535.5 535.5"><path d="M0 497.25l535.5-229.5L0 38.25v178.5l382.5 51-382.5 51z"/></symbol><symbol id="twitter" viewBox="0 0 449.956 449.956"><path d="M449.956 85.657c-17.702 7.614-35.408 12.369-53.102 14.279 19.985-11.991 33.503-28.931 40.546-50.819-18.281 10.847-37.787 18.268-58.532 22.267-18.274-19.414-40.73-29.125-67.383-29.125-25.502 0-47.246 8.992-65.24 26.98-17.984 17.987-26.977 39.731-26.977 65.235 0 6.851.76 13.896 2.284 21.128-37.688-1.903-73.042-11.372-106.068-28.407C82.46 110.158 54.433 87.46 31.403 59.101c-8.375 14.272-12.564 29.787-12.564 46.536 0 15.798 3.711 30.456 11.138 43.97 7.422 13.512 17.417 24.455 29.98 32.831-14.849-.572-28.743-4.475-41.684-11.708v1.142c0 22.271 6.995 41.824 20.983 58.674 13.99 16.848 31.645 27.453 52.961 31.833a95.543 95.543 0 01-24.269 3.138c-5.33 0-11.136-.475-17.416-1.42 5.9 18.459 16.75 33.633 32.546 45.535 15.799 11.896 33.691 18.028 53.677 18.418-33.498 26.262-71.66 39.393-114.486 39.393-8.186 0-15.607-.373-22.27-1.139 42.827 27.596 90.03 41.394 141.612 41.394 32.738 0 63.478-5.181 92.21-15.557 28.746-10.369 53.297-24.267 73.665-41.686 20.362-17.415 37.925-37.448 52.674-60.097 14.75-22.651 25.738-46.298 32.977-70.946 7.23-24.653 10.848-49.344 10.848-74.092 0-5.33-.096-9.325-.287-11.991 18.087-13.127 33.504-29.023 46.258-47.672z"/></symbol><symbol id="youtube"><path d="M18.474 20.473a.98.98 0 00-.08-.356c-.059-.146-.185-.22-.344-.235-.186-.018-.334.057-.469.177-.054.047-.079.117-.079.117l.003 3.787v.093l.037.05c.11.118.238.212.401.246.27.055.46-.057.512-.307a.92.92 0 00.021-.19c.002-1.128.004-2.255-.002-3.382zm0 0a.98.98 0 00-.08-.356c-.059-.146-.185-.22-.344-.235-.186-.018-.334.057-.469.177-.054.047-.079.117-.079.117l.003 3.787v.093l.037.05c.11.118.238.212.401.246.27.055.46-.057.512-.307a.92.92 0 00.021-.19c.002-1.128.004-2.255-.002-3.382zm4.241-5.712a313.604 313.604 0 00-13.45 0 2.86 2.86 0 00-2.798 2.86v7.001a2.86 2.86 0 002.799 2.861c4.483.096 8.967.096 13.449 0a2.86 2.86 0 002.8-2.861v-7a2.86 2.86 0 00-2.8-2.861zM10.582 25.26H9.29v-7.307H7.952V16.73h3.971v1.22h-1.34v7.31zm4.626-3.033v3.034h-1.144v-.694c-.042.045-.065.068-.087.093-.246.278-.525.51-.882.632a1.07 1.07 0 01-.536.049.66.66 0 01-.518-.413 1.602 1.602 0 01-.119-.66c-.003-.835-.001-5.255-.001-5.298h1.141c.002.039.007 3.211.007 4.759 0 .084.001.17.018.252.042.208.201.297.401.224.23-.084.406-.243.553-.433.022-.027.022-.076.022-.116v-4.693l1.145-.003v3.267zm4.355 2.427c-.153.46-.49.695-.974.69a1.293 1.293 0 01-.976-.445l-.111-.118v.478h-1.147v-8.53h1.147v2.808s.064-.129.123-.196a1.33 1.33 0 01.66-.42c.44-.11.948.027 1.19.541.142.304.182.628.182.958.002 1.192.002 2.384 0 3.577 0 .223-.023.443-.094.657zm4.235-.24c-.199.582-.61.905-1.211.993-.374.055-.744.047-1.094-.111-.479-.216-.75-.607-.867-1.105a3.331 3.331 0 01-.084-.712c-.009-.934-.005-1.869-.002-2.803 0-.488.117-.939.452-1.313.381-.427.87-.587 1.428-.55a2 2 0 01.498.09c.542.178.832.584.946 1.123.043.208.06.423.063.636.01.498-.004 1.597-.004 1.597h-2.195v1.574a.511.511 0 101.022 0v-.81h1.18s.017.956-.132 1.391zM22.75 20.4a.512.512 0 10-1.022 0v.883h1.022V20.4zm-4.356-.281c-.059-.147-.185-.22-.344-.236-.186-.018-.334.057-.469.177-.054.047-.079.117-.079.117l.003 3.787v.093l.037.05c.11.118.238.212.401.246.27.055.46-.057.512-.307a.92.92 0 00.021-.19c.002-1.128.004-2.255-.002-3.382a.97.97 0 00-.08-.355zm2.931-13.453v6.333h-1.173l.001-.68c-.13.127-.24.247-.362.354-.216.19-.46.332-.746.388-.439.085-.813-.053-.953-.508a1.673 1.673 0 01-.076-.472V6.666h1.165v4.83c0 .064.005.128.016.19.036.2.183.294.375.227.233-.08.411-.242.563-.433.021-.027.017-.078.017-.118V6.666h1.173zm-9.705 1.1c-.255-1.073-.789-3.34-.789-3.34H9.496l1.484 4.92a.605.605 0 01.025.172v3.48h1.23v-3.48c0-.058.008-.117.024-.172.459-1.517 1.485-4.92 1.485-4.92h-1.336s-.533 2.267-.788 3.34zm3.731-1.259a1.68 1.68 0 00-1.68 1.68v3.29a1.68 1.68 0 003.36 0v-3.29a1.68 1.68 0 00-1.68-1.68zm.485 5.035a.485.485 0 01-.97 0v-3.42a.485.485 0 01.97 0v3.42z"/></symbol></svg>