<svg xmlns="http://www.w3.org/2000/svg" xmlns:xlink="http://www.w3.org/1999/xlink"><symbol id="arrow-right-blue"><path d="M23.854 7.646l-7.5-7.5a.5.5 0 10-.707.708L22.293 7.5H.5a.5.5 0 100 1h21.793l-6.646 6.646a.5.5 0 10.707.707l7.5-7.5a.5.5 0 000-.707z" fill="#477AFB"/></symbol><symbol id="home" viewBox="0 0 22 20"><path d="M21.212 10.377a1.524 1.524 0 01-1.437.998h-.525v7.563c0 .38-.308.687-.688.687h-4.125v-4.812A3.441 3.441 0 0011 11.375a3.441 3.441 0 00-3.438 3.438v4.812H3.437a.688.688 0 01-.687-.687v-7.563h-.526c-.646 0-1.21-.391-1.437-.997a1.525 1.525 0 01.426-1.699l8.03-7.603a2.556 2.556 0 013.514 0l8.049 7.621c.466.407.634 1.073.406 1.68z"/></symbol></svg>