<svg width="101" height="101" viewBox="0 0 101 101" fill="none" xmlns="http://www.w3.org/2000/svg">
<path d="M50.118 0.629964C49.1939 0.636277 48.4525 1.39621 48.4633 2.31988V12.3446C48.5116 14.5227 51.757 14.5227 51.8054 12.3446V2.31988C51.8171 1.38345 51.055 0.620811 50.118 0.629964ZM67.0896 4.80891L62.0699 13.1568C60.9255 15.0728 63.8008 16.7888 64.9453 14.8727L69.9519 6.52484C70.6382 5.43179 69.8781 4.0069 68.4996 3.96896C67.859 4.01315 67.3639 4.3275 67.0896 4.80891ZM31.6517 3.9705C30.3782 4.03552 29.6437 5.44448 30.32 6.52484L35.3397 14.8727C36.4395 16.949 39.5168 15.1044 38.202 13.1568L33.1922 4.80891C32.8785 4.26097 32.2824 3.93648 31.6517 3.9705ZM67.3377 22.8619L58.9857 31.2065C58.3377 31.858 58.3377 32.9103 58.9857 33.5618L89.0613 63.6359C89.7142 64.2901 90.7745 64.2901 91.4275 63.6359L99.7795 55.288C100.436 54.635 100.436 53.5727 99.7795 52.9196L69.7072 22.8619C68.7825 21.9377 68.1417 22.0585 67.3377 22.8619ZM30.5779 22.8619L0.492516 52.9196C-0.164172 53.5727 -0.164172 54.635 0.492516 55.288L8.85427 63.6359C9.50611 64.2836 10.5589 64.2836 11.2107 63.6359L41.2961 33.5618C41.9441 32.9103 41.9441 31.858 41.2961 31.2065L32.9343 22.8619C32.0909 22.0201 31.2428 22.1976 30.5779 22.8619ZM31.7626 26.3982L37.7451 32.3776L10.026 60.0835L4.04349 54.1038L31.7626 26.3982ZM68.5224 26.3982L96.2285 54.1038L90.2428 60.0835L62.5269 32.3907L68.5224 26.3982ZM42.4221 37.9169C40.8051 37.7496 39.768 40.1986 41.5572 41.1008L46.6095 43.8216L42.6603 45.9484C42.5175 46.0254 42.3866 46.1232 42.272 46.2387L33.9167 54.5901C31.431 57.0746 31.431 61.1483 33.9167 63.6328C36.4024 66.1173 40.4782 66.1173 42.9639 63.6328L48.6494 57.9501C50.0171 59.0419 52.5685 60.7816 56.8218 60.7816C62.5776 60.7816 66.3585 56.9518 66.3585 56.9518C67.9992 55.3776 65.5706 52.9502 63.9956 54.5901C63.9956 54.5901 61.0923 57.4411 56.8218 57.4411C52.5514 57.4411 49.6481 54.5901 49.6481 54.5901C48.9955 53.938 47.9377 53.938 47.2851 54.5901L40.6009 61.271C39.3836 62.4877 37.497 62.4877 36.2797 61.271C35.0623 60.0542 35.0623 58.1685 36.2797 56.9518L44.462 48.7734L58.7376 41.0909C60.3209 40.2683 59.6852 37.8707 57.9021 37.9398C57.6389 37.9524 57.3817 38.0205 57.1515 38.1486L50.1376 41.923L43.1434 38.1617C42.8952 38.019 42.6531 37.9408 42.4221 37.9174V37.9169ZM70.1739 59.095C68.6743 59.0954 67.9341 60.9172 69.0087 61.9626L79.035 71.984C80.2523 73.2008 80.2523 75.0864 79.035 76.3032C77.8176 77.52 75.9312 77.52 74.7138 76.3032L73.0427 74.6329C72.7281 74.3097 72.2961 74.1272 71.8449 74.1272C70.3453 74.1276 69.6051 75.9492 70.6798 76.9946L72.3508 78.6651C73.5682 79.8819 73.5682 81.7674 72.3508 82.9841C71.1335 84.2009 69.2469 84.2009 68.0296 82.9841L66.3585 81.3138C64.7836 79.674 62.3549 82.1015 63.9956 83.6757L65.6666 85.346C66.884 86.5627 66.884 88.4484 65.6666 89.6652C64.4493 90.8819 62.5627 90.8819 61.3454 89.6652L59.6744 87.9949C59.3597 87.6717 58.9277 87.4892 58.4765 87.4892C56.9769 87.4896 56.2367 89.3112 57.3114 90.3566L58.9824 92.0268C60.1998 93.2436 60.1998 95.1293 58.9824 96.346C58.0937 97.2344 56.8412 97.4545 55.7611 97.054C53.6449 96.2194 52.4502 99.4395 54.5992 100.186C56.8726 101.029 59.5307 100.522 61.3454 98.7079C62.6711 97.3829 63.268 95.6072 63.1796 93.8603C64.9274 93.9487 66.7039 93.3521 68.0296 92.0268C69.3552 90.7019 69.9522 88.9262 69.8638 87.1792C71.6116 87.2676 73.3881 86.6711 74.7138 85.346C76.0395 84.0209 76.6364 82.2453 76.548 80.4983C78.2958 80.5867 80.0723 79.9902 81.398 78.6651C83.8837 76.1806 83.8837 72.1066 81.398 69.6221L79.2374 67.4625L82.5174 64.184C84.158 62.6098 81.7295 60.1826 80.1545 61.8223L76.8744 65.1008L71.3717 59.6007C71.0571 59.2775 70.6251 59.095 70.1739 59.095ZM17.7643 64.1873L21.0379 67.4592L18.8708 69.6254C16.3851 72.1099 16.3851 76.1806 18.8708 78.6651C20.1963 79.9899 21.9745 80.5832 23.724 80.495C23.6356 82.244 24.2325 84.0209 25.5582 85.346C26.884 86.6711 28.6617 87.2676 30.4114 87.1792C30.3232 88.9279 30.9169 90.7053 32.2424 92.0301C33.5679 93.355 35.3461 93.9484 37.0956 93.8603C37.0072 95.6092 37.6041 97.3862 38.9299 98.7112C41.4156 101.196 45.4979 101.196 47.9836 98.7112L51.3126 95.3707C53.7983 92.8862 53.7983 88.8058 51.3126 86.3213C50.0697 85.0791 48.4392 84.4586 46.7988 84.4586C46.6893 84.4586 46.5817 84.4839 46.4724 84.4902C46.5615 82.7405 45.9678 80.9617 44.6415 79.636C43.3986 78.3937 41.755 77.7766 40.1146 77.7766C40.0056 77.7766 39.8972 77.8019 39.7882 77.8082C39.8748 76.0647 39.278 74.2937 37.954 72.9704C36.7111 71.7281 35.0676 71.0945 33.4272 71.0945L33.104 71.1261C33.1914 69.3816 32.5946 67.6092 31.2698 66.285C30.027 65.0428 28.3801 64.4223 26.7397 64.4223C25.6443 64.4223 24.5583 64.7234 23.5804 65.2769L20.1273 61.8256C18.417 60.2661 16.2597 62.6085 17.7643 64.1875L17.7643 64.1873ZM26.7397 67.7268C27.5147 67.7268 28.2916 68.0317 28.9003 68.6402C30.1177 69.857 30.1177 71.7524 28.9003 72.9692L25.5582 76.2966C24.3409 77.5134 22.4576 77.5134 21.2403 76.2966C20.0229 75.0799 20.0229 73.1975 21.2403 71.9807L24.5824 68.6402C25.191 68.0316 25.9647 67.7268 26.7397 67.7268ZM33.4272 74.411C34.2022 74.411 34.9758 74.716 35.5845 75.3245C36.8019 76.5413 36.8019 78.4202 35.5845 79.637L32.2424 82.9808C31.0251 84.1975 29.1418 84.1975 27.9244 82.9808C26.7071 81.764 26.7071 79.8819 27.9244 78.6651L31.2698 75.3245C31.8785 74.716 32.6521 74.411 33.4272 74.411ZM40.1146 81.0921C40.8896 81.0921 41.6633 81.3969 42.272 82.0054C43.4893 83.2222 43.4893 85.1046 42.272 86.3213L38.9299 89.6619C37.7125 90.8787 35.8293 90.8787 34.6119 89.6619C33.3946 88.4451 33.3946 86.5627 34.6119 85.346L37.954 82.0054C38.5627 81.3969 39.3396 81.0921 40.1146 81.0921ZM46.7988 87.7762C47.5738 87.7762 48.3475 88.0811 48.9562 88.6896C50.1735 89.9064 50.1735 91.7856 48.9562 93.0024L45.6141 96.346C44.3967 97.5628 42.5134 97.5628 41.2961 96.346C40.0787 95.1293 40.0787 93.2469 41.2961 92.0301L44.6415 88.6896C45.2501 88.081 46.0238 87.7762 46.7988 87.7762Z" fill="#ECEEF1"/>
</svg>
